<?xml version="1.0" encoding="utf-8"?>
<!-- Generator: Adobe Illustrator 26.0.1, SVG Export Plug-In . SVG Version: 6.00 Build 0)  -->
<svg version="1.1" id="Layer_1" xmlns="http://www.w3.org/2000/svg" xmlns:xlink="http://www.w3.org/1999/xlink" x="0px" y="0px"
	 viewBox="0 0 792 297.4" style="enable-background:new 0 0 792 297.4;" xml:space="preserve">
<style type="text/css">
	.st0{fill:#FFFFFF;}
	.st1{fill-rule:evenodd;clip-rule:evenodd;fill:#FFFFFF;}
</style>
<g>
	<path class="st0" d="M576.4,189.9c0,0.2,0,0.4,0,0.6c0,0.2,0,0.4,0,0.5c-0.1,0.1-0.1,0.2-0.2,0.3c-0.1,0.2-0.2,0.3-0.3,0.4
		c-0.3,0.3-0.7,0.5-1,0.7c-0.6,0.4-1.2,0.7-1.9,0.9c-0.8,0.3-1.7,0.6-2.5,0.8c-1,0.2-2.1,0.3-3.1,0.3c-1.8,0-3.6-0.3-5.3-1
		c-1.5-0.6-2.9-1.6-4-2.9c-1.2-1.4-2-3-2.6-4.7c-0.6-2.1-0.9-4.3-0.9-6.5c0-2.3,0.3-4.5,1-6.7c0.5-1.8,1.5-3.5,2.7-5
		c1.1-1.3,2.6-2.4,4.2-3.1c1.7-0.7,3.5-1.1,5.4-1.1c0.8,0,1.7,0.1,2.5,0.2c0.8,0.2,1.5,0.4,2.3,0.6c0.6,0.2,1.3,0.5,1.9,0.9
		c0.4,0.2,0.8,0.5,1.1,0.8c0.2,0.2,0.3,0.4,0.4,0.5c0.1,0.1,0.1,0.2,0.2,0.4c0.1,0.1,0,0.3,0.1,0.5v0.8c0,0.3,0,0.5,0,0.8
		c0,0.2,0,0.4-0.1,0.6c-0.1,0.1-0.1,0.2-0.2,0.3c-0.1,0.1-0.2,0.2-0.3,0.2c-0.3-0.1-0.7-0.2-0.9-0.5c-0.5-0.4-1-0.7-1.5-1
		c-0.7-0.4-1.5-0.8-2.2-1c-1-0.3-2.1-0.4-3.1-0.4c-1.3,0-2.5,0.2-3.7,0.8c-1.1,0.6-2.1,1.4-2.8,2.4c-0.8,1.2-1.4,2.4-1.8,3.8
		c-0.5,1.7-0.7,3.4-0.7,5.1c0,1.7,0.2,3.4,0.6,5.1c0.4,1.3,1,2.6,1.8,3.7c0.8,1,1.7,1.7,2.9,2.2c1.2,0.5,2.5,0.8,3.8,0.8
		c1.1,0,2.1-0.1,3.1-0.5c0.8-0.3,1.6-0.6,2.3-1c0.6-0.4,1.1-0.7,1.5-1c0.3-0.2,0.6-0.4,1-0.4c0.1,0,0.2,0,0.3,0
		c0.1,0.1,0.1,0.1,0.2,0.3c0.1,0.2,0.1,0.3,0.1,0.5C576.5,189.3,576.4,189.6,576.4,189.9z"/>
	<path class="st0" d="M601.6,182.8c0,1.6-0.2,3.2-0.7,4.7c-0.4,1.4-1.1,2.6-2,3.7c-0.9,1.1-2,1.9-3.3,2.4c-1.5,0.6-3.1,0.9-4.7,0.9
		c-1.5,0-3.1-0.2-4.5-0.8c-1.2-0.5-2.3-1.2-3.2-2.2c-0.9-1-1.5-2.2-1.9-3.5c-0.4-1.6-0.6-3.2-0.6-4.8c0-1.6,0.2-3.2,0.7-4.7
		c0.4-1.4,1.1-2.6,2-3.7c0.9-1.1,2.1-1.9,3.3-2.4c1.5-0.6,3.1-0.9,4.7-0.9c1.5,0,3.1,0.2,4.5,0.8c1.2,0.5,2.3,1.3,3.2,2.2
		c0.9,1,1.5,2.3,1.9,3.6C601.4,179.7,601.7,181.2,601.6,182.8z M597.6,183.1c0-1.1-0.1-2.2-0.3-3.2c-0.2-0.9-0.5-1.8-1-2.6
		c-0.5-0.8-1.2-1.4-2-1.8c-0.9-0.5-2-0.7-3.1-0.7c-1,0-2,0.2-3,0.6c-0.8,0.4-1.5,1-2,1.7c-0.6,0.8-1,1.7-1.3,2.7
		c-0.3,1.1-0.4,2.2-0.4,3.3c0,1.1,0.1,2.1,0.3,3.2c0.2,0.9,0.5,1.8,1,2.7c0.5,0.8,1.2,1.4,2,1.8c1,0.5,2,0.7,3.1,0.7
		c1,0,2-0.2,3-0.6c0.8-0.4,1.5-1,2-1.7c0.5-0.8,1-1.7,1.2-2.6C597.5,185.3,597.6,184.2,597.6,183.1L597.6,183.1z"/>
	<path class="st0" d="M620.5,174c0,0.3,0,0.6,0,0.9c0,0.2,0,0.4-0.1,0.6c0,0.1-0.1,0.2-0.2,0.3c-0.1,0-0.2,0.1-0.3,0.1
		c-0.1,0-0.3,0-0.4-0.1c-0.2,0-0.4-0.1-0.6-0.2c-0.2-0.1-0.5-0.1-0.8-0.2c-0.3,0-0.6-0.1-0.9-0.1c-0.4,0-0.8,0.1-1.2,0.2
		c-0.4,0.2-0.8,0.5-1.1,0.8c-0.5,0.4-0.9,0.9-1.3,1.4c-0.5,0.6-1,1.3-1.5,2.2v13.8c0,0.1,0,0.2-0.1,0.3c-0.1,0.1-0.2,0.2-0.3,0.2
		c-0.2,0.1-0.4,0.1-0.6,0.1c-0.3,0-0.6,0-1,0c-0.3,0-0.7,0-1,0c-0.2,0-0.4-0.1-0.6-0.1c-0.1-0.1-0.2-0.1-0.3-0.2c0,0,0-0.2,0-0.3
		v-21c0-0.1,0-0.2,0-0.3c0.1-0.1,0.2-0.2,0.3-0.2c0.2-0.1,0.3-0.2,0.5-0.2c0.3,0,0.6,0,0.9,0c0.3,0,0.6,0,0.9,0c0.2,0,0.4,0,0.5,0.2
		c0.1,0,0.2,0.1,0.3,0.2c0,0.1,0.1,0.2,0,0.3v3.1c0.6-0.8,1.1-1.5,1.6-2.1c0.5-0.4,0.9-0.9,1.4-1.2c0.4-0.3,0.9-0.5,1.3-0.6
		c0.4-0.1,0.9-0.2,1.3-0.2c0.2,0,0.4,0,0.7,0c0.3,0,0.5,0.1,0.8,0.1c0.3,0.1,0.5,0.2,0.8,0.2c0.2,0.1,0.3,0.1,0.5,0.2
		c0.1,0.1,0.1,0.2,0.2,0.2c0,0.1,0,0.2,0,0.2c0,0.2,0,0.3,0,0.5C620.4,173.4,620.5,173.6,620.5,174z"/>
	<path class="st0" d="M645.1,182.7c0,1.7-0.2,3.3-0.6,5c-0.4,1.3-1,2.6-1.8,3.7c-0.8,1-1.7,1.8-2.9,2.3c-1.2,0.5-2.5,0.8-3.9,0.8
		c-0.6,0-1.2-0.1-1.8-0.2c-0.5-0.1-1-0.3-1.5-0.6c-0.6-0.3-1.1-0.6-1.5-1c-0.5-0.4-1.1-0.9-1.6-1.4v10.5c0,0.1,0,0.2-0.1,0.3
		c-0.1,0.1-0.2,0.2-0.3,0.2c-0.2,0.1-0.4,0.1-0.6,0.2c-0.2,0-0.6,0-1,0s-0.7,0-1,0c-0.2,0-0.4-0.1-0.6-0.2c-0.1,0-0.2-0.1-0.3-0.2
		c0-0.1,0-0.2,0-0.3v-29.2c0-0.1,0-0.2,0-0.3c0.1-0.1,0.2-0.2,0.3-0.2c0.2-0.1,0.3-0.2,0.5-0.2c0.5-0.1,1.1-0.1,1.6,0
		c0.2,0,0.4,0,0.5,0.2c0.1,0,0.2,0.1,0.3,0.2c0.1,0.1,0.1,0.2,0.1,0.3v2.8c0.6-0.6,1.2-1.2,1.8-1.7c0.5-0.5,1.1-0.9,1.8-1.2
		c0.6-0.3,1.2-0.6,1.9-0.8c0.7-0.2,1.3-0.2,2-0.2c1.3,0,2.7,0.3,3.9,0.9c1.1,0.6,2,1.4,2.6,2.4c0.7,1.1,1.2,2.3,1.5,3.6
		C644.9,179.9,645.1,181.3,645.1,182.7z M641,183.2c0-1.1-0.1-2.1-0.2-3.2c-0.1-0.9-0.4-1.8-0.9-2.7c-0.4-0.7-0.9-1.4-1.6-1.9
		c-0.7-0.5-1.6-0.7-2.5-0.7c-0.5,0-1,0.1-1.5,0.2c-0.5,0.2-1,0.4-1.5,0.7c-0.6,0.4-1.1,0.8-1.6,1.2c-0.6,0.6-1.2,1.3-1.7,2v8.3
		c0.9,1.1,1.9,2.1,3,3c0.9,0.7,1.9,1,3,1c0.9,0,1.7-0.2,2.5-0.7c0.7-0.5,1.3-1.1,1.7-1.9c0.4-0.8,0.8-1.7,1-2.6
		C641,185.2,641,184.2,641,183.2L641,183.2z"/>
	<path class="st0" d="M671.2,182.8c0,1.6-0.2,3.2-0.7,4.7c-0.4,1.4-1.1,2.6-2,3.7c-0.9,1.1-2,1.9-3.3,2.4c-1.5,0.6-3.1,0.9-4.7,0.9
		c-1.5,0-3.1-0.2-4.5-0.8c-1.2-0.5-2.3-1.2-3.2-2.2c-0.9-1-1.5-2.2-1.9-3.5c-0.4-1.6-0.6-3.2-0.6-4.8c0-1.6,0.2-3.2,0.7-4.7
		c0.4-1.4,1.1-2.6,2-3.7c0.9-1.1,2-1.9,3.3-2.4c1.5-0.6,3.1-0.9,4.7-0.9c1.5,0,3.1,0.2,4.5,0.8c1.2,0.5,2.3,1.3,3.2,2.2
		c0.9,1,1.5,2.3,1.9,3.6C671,179.7,671.2,181.2,671.2,182.8z M667.2,183.1c0-1.1-0.1-2.2-0.3-3.2c-0.2-0.9-0.5-1.8-1-2.6
		c-0.5-0.8-1.2-1.4-2-1.8c-0.9-0.5-2-0.7-3-0.7c-1,0-2.1,0.2-3,0.6c-0.8,0.4-1.5,1-2,1.7c-0.6,0.8-1,1.7-1.2,2.7
		c-0.3,1.1-0.4,2.2-0.4,3.3c0,1.1,0.1,2.1,0.3,3.2c0.2,0.9,0.5,1.8,1,2.7c0.5,0.8,1.2,1.4,2,1.8c1,0.5,2,0.7,3.1,0.7
		c1,0,2-0.2,2.9-0.6c0.8-0.4,1.5-1,2-1.7c0.6-0.8,1-1.7,1.2-2.6C667.1,185.4,667.2,184.2,667.2,183.1L667.2,183.1z"/>
	<path class="st0" d="M690.1,174c0,0.3,0,0.6,0,0.9c0,0.2,0,0.4-0.1,0.6c0,0.1-0.1,0.2-0.2,0.3c-0.1,0-0.1,0.1-0.3,0.1
		c-0.1,0-0.3,0-0.4-0.1c-0.2,0-0.4-0.1-0.6-0.2c-0.2-0.1-0.5-0.1-0.8-0.2c-0.3,0-0.6-0.1-0.9-0.1c-0.4,0-0.8,0.1-1.2,0.2
		c-0.4,0.2-0.8,0.5-1.1,0.8c-0.5,0.4-0.9,0.9-1.3,1.4c-0.5,0.6-1,1.3-1.5,2.2v13.8c0,0.1,0,0.2-0.1,0.3c-0.1,0.1-0.2,0.2-0.3,0.2
		c-0.2,0.1-0.4,0.1-0.6,0.1c-0.3,0-0.7,0-1,0c-0.3,0-0.7,0-1,0c-0.2,0-0.4-0.1-0.6-0.1c-0.1-0.1-0.2-0.1-0.3-0.2c0,0,0-0.2,0-0.3
		v-21c0-0.1,0-0.2,0-0.3c0.1-0.1,0.2-0.2,0.3-0.2c0.2-0.1,0.3-0.2,0.5-0.2c0.3,0,0.6,0,0.9,0c0.3,0,0.6,0,0.9,0c0.2,0,0.4,0,0.5,0.2
		c0.1,0,0.2,0.1,0.3,0.2c0,0.1,0.1,0.2,0,0.3v3.1c0.6-0.8,1.1-1.5,1.6-2.1c0.5-0.4,0.9-0.9,1.4-1.2c0.4-0.3,0.9-0.5,1.4-0.6
		c0.4-0.1,0.9-0.2,1.3-0.2c0.2,0,0.4,0,0.7,0c0.3,0,0.5,0.1,0.8,0.1c0.3,0,0.5,0.2,0.8,0.2c0.2,0.1,0.3,0.1,0.5,0.2
		c0.1,0.1,0.1,0.1,0.2,0.2c0,0.1,0,0.2,0,0.2c0,0.2,0.1,0.3,0,0.5C690.1,173.4,690.1,173.6,690.1,174z"/>
	<path class="st0" d="M711.2,193.6c0,0.2-0.1,0.3-0.2,0.4c-0.2,0.1-0.3,0.2-0.5,0.2c-0.3,0.1-0.7,0.1-1,0.1c-0.3,0-0.6,0-1-0.1
		c-0.2,0-0.4-0.1-0.5-0.2c-0.1-0.1-0.2-0.3-0.2-0.4v-2.1c-0.8,1-1.9,1.7-3,2.3c-1.1,0.6-2.3,0.8-3.6,0.8c-1,0-2-0.1-3-0.4
		c-0.8-0.2-1.6-0.7-2.3-1.2c-0.7-0.5-1.2-1.2-1.5-2c-0.4-0.9-0.5-1.8-0.5-2.7c0-1.1,0.2-2.1,0.7-3.1c0.5-0.9,1.2-1.6,2.1-2.1
		c1-0.6,2.2-1,3.4-1.3c1.4-0.3,2.9-0.5,4.4-0.5h2.9v-1.6c0-0.7-0.1-1.4-0.3-2.1c-0.1-0.6-0.4-1.1-0.8-1.5c-0.4-0.4-0.9-0.8-1.5-1
		c-0.7-0.2-1.5-0.3-2.2-0.3c-0.9,0-1.7,0.1-2.5,0.3c-0.7,0.2-1.4,0.5-2,0.8c-0.5,0.2-1,0.4-1.4,0.7c-0.2,0.2-0.5,0.3-0.8,0.3
		c-0.1,0-0.2,0-0.3-0.1c-0.1-0.1-0.2-0.2-0.2-0.3c-0.1-0.1-0.2-0.3-0.2-0.5c0-0.2,0-0.4,0-0.6c0-0.3,0-0.6,0.1-0.9
		c0.1-0.3,0.2-0.5,0.4-0.7c0.3-0.3,0.7-0.5,1.1-0.7c0.6-0.3,1.2-0.5,1.8-0.7c1.5-0.5,3-0.8,4.6-0.8c1.3,0,2.6,0.2,3.9,0.5
		c1,0.3,1.9,0.8,2.6,1.5c0.7,0.7,1.1,1.5,1.4,2.4c0.3,1.1,0.5,2.3,0.5,3.4L711.2,193.6z M707.3,184h-3.3c-0.9,0-1.9,0-2.8,0.2
		c-0.7,0.1-1.3,0.4-1.9,0.8c-0.5,0.3-0.9,0.7-1.1,1.2c-0.3,0.5-0.4,1.1-0.4,1.7c0,1,0.3,1.9,1,2.6c0.8,0.7,1.9,1,2.9,1
		c1,0,2-0.3,2.8-0.8c1-0.7,1.9-1.4,2.7-2.3L707.3,184z"/>
	<path class="st0" d="M737.4,172c0.4-0.1,0.7,0,1,0.3c0.2,0.3,0.3,0.6,0.2,1v20.3c0,0.1,0,0.2-0.1,0.3c-0.1,0.1-0.2,0.2-0.3,0.2
		c-0.2,0.1-0.4,0.1-0.6,0.1c-0.3,0-0.6,0-0.9,0c-0.3,0-0.6,0-1,0c-0.2,0-0.4-0.1-0.6-0.1c-0.1-0.1-0.2-0.1-0.3-0.2
		c-0.1-0.1-0.1-0.2-0.1-0.3v-18.4h-10.9v11.7c-0.1,1.1,0.2,2.2,0.7,3.2c0.5,0.8,1.4,1.2,2.3,1.1c0.3,0,0.7,0,1-0.1
		c0.3-0.1,0.5-0.1,0.7-0.2l0.6-0.2c0.1-0.1,0.3-0.1,0.4-0.1c0.1,0,0.2,0,0.2,0c0.1,0.1,0.1,0.1,0.1,0.2c0.1,0.1,0.1,0.3,0.1,0.4
		c0,0.2,0,0.5,0,0.7c0,0.3,0,0.7-0.1,1c0,0.2-0.1,0.4-0.3,0.6c-0.1,0.2-0.3,0.3-0.5,0.4c-0.3,0.1-0.6,0.2-0.9,0.2
		c-0.3,0.1-0.7,0.2-1,0.2c-0.4,0-0.7,0-1.1,0c-0.9,0-1.9-0.1-2.8-0.4c-0.7-0.2-1.4-0.7-1.9-1.3c-0.5-0.6-0.9-1.4-1.1-2.2
		c-0.2-1-0.4-2.1-0.3-3.2v-12.1h-3c-0.2,0-0.4-0.2-0.5-0.4c-0.2-0.4-0.3-0.8-0.2-1.2c0-0.3,0-0.5,0-0.7c0-0.2,0.1-0.4,0.2-0.5
		c0-0.1,0.1-0.2,0.2-0.3c0.1,0,0.2-0.1,0.3,0h3v-5c0-0.1,0-0.2,0-0.3c0.1-0.1,0.2-0.2,0.3-0.2c0.2-0.1,0.4-0.2,0.6-0.2
		c0.3,0,0.7,0,1,0c0.3,0,0.7,0,1,0c0.2,0,0.4,0,0.6,0.2c0.1,0,0.2,0.1,0.3,0.2c0.1,0.1,0.1,0.2,0.1,0.3v5L737.4,172z M739,165.5
		c0.1,0.6-0.1,1.3-0.5,1.8c-0.5,0.4-1.2,0.6-1.9,0.5c-0.6,0.1-1.3-0.1-1.8-0.5c-0.4-0.5-0.6-1.2-0.5-1.8c-0.1-0.7,0.1-1.3,0.5-1.9
		c1.2-0.6,2.6-0.6,3.7,0C738.9,164.3,739.1,164.9,739,165.5L739,165.5z"/>
	<path class="st0" d="M766.1,182.8c0,1.6-0.2,3.2-0.7,4.7c-0.4,1.4-1.1,2.6-2,3.7c-0.9,1.1-2,1.9-3.3,2.5c-1.5,0.6-3.1,0.9-4.7,0.9
		c-1.5,0-3.1-0.2-4.5-0.8c-1.2-0.5-2.3-1.2-3.2-2.2c-0.9-1-1.5-2.2-1.9-3.5c-0.4-1.6-0.6-3.2-0.6-4.8c0-1.6,0.2-3.2,0.7-4.7
		c0.4-1.4,1.1-2.6,2-3.7c0.9-1.1,2-1.9,3.3-2.4c1.5-0.6,3.1-0.9,4.7-0.9c1.5,0,3.1,0.2,4.5,0.8c1.2,0.5,2.3,1.3,3.2,2.2
		c0.9,1,1.5,2.3,1.9,3.6C765.9,179.7,766.1,181.3,766.1,182.8z M762.1,183.1c0-1.1-0.1-2.2-0.3-3.2c-0.2-0.9-0.5-1.8-1-2.6
		c-0.5-0.8-1.2-1.4-2-1.8c-0.9-0.5-2-0.7-3-0.7c-1,0-2.1,0.2-3,0.6c-0.8,0.4-1.5,1-2,1.7c-0.5,0.8-0.9,1.7-1.2,2.6
		c-0.3,1.1-0.4,2.2-0.4,3.3c0,1.1,0.1,2.1,0.3,3.2c0.2,0.9,0.5,1.8,1,2.7c0.5,0.8,1.2,1.4,2,1.8c1,0.5,2,0.7,3.1,0.7
		c1,0,2-0.2,2.9-0.6c0.8-0.4,1.5-1,2-1.7c0.6-0.8,1-1.7,1.2-2.6C762,185.3,762.1,184.2,762.1,183.1L762.1,183.1z"/>
	<path class="st0" d="M790.7,193.6c0,0.1,0,0.2-0.1,0.3c-0.1,0.1-0.2,0.2-0.3,0.2c-0.2,0.1-0.4,0.1-0.6,0.1c-0.3,0-0.7,0-1,0
		c-0.3,0-0.7,0-1,0c-0.2,0-0.4-0.1-0.6-0.1c-0.1,0-0.2-0.1-0.3-0.2c-0.1,0-0.1-0.2-0.1-0.3v-12.3c0-1-0.1-1.9-0.3-2.9
		c-0.2-0.7-0.4-1.3-0.8-1.9c-0.4-0.5-0.8-0.9-1.4-1.2c-0.6-0.3-1.3-0.4-2-0.4c-1,0-2,0.4-2.9,1c-1.2,0.9-2.2,1.9-3.1,3v14.6
		c0,0.1,0,0.2-0.1,0.3c-0.1,0.1-0.2,0.2-0.3,0.2c-0.2,0.1-0.4,0.1-0.6,0.1c-0.3,0-0.7,0-1,0c-0.3,0-0.7,0-1,0
		c-0.2,0-0.4-0.1-0.6-0.1c-0.1-0.1-0.2-0.1-0.3-0.2c0,0,0-0.2,0-0.3v-20.9c0-0.1,0-0.2,0-0.3c0.1-0.1,0.2-0.2,0.3-0.2
		c0.2-0.1,0.3-0.2,0.5-0.2c0.3,0,0.6,0,0.9,0c0.3,0,0.6,0,0.9,0c0.2,0,0.4,0,0.5,0.2c0.1,0,0.2,0.1,0.3,0.2c0,0.1,0,0.2,0,0.3v2.8
		c1-1.1,2.2-2.1,3.5-2.9c2.2-1.2,4.8-1.3,7.1-0.2c0.9,0.4,1.7,1.1,2.3,1.9c0.6,0.8,1.1,1.8,1.3,2.8c0.3,1.3,0.4,2.6,0.4,3.9
		L790.7,193.6z"/>
</g>
<g>
	<path class="st1" d="M27.6,147.4c-50.8,104.3,0.2,130.1,37,132.3c102.6,0.1,235.1-186.5,122.6-236.6
		c120.4,34,5.4,255.5-125.9,254.2C-27.3,292.8-2.2,187,27.6,147.4z"/>
	<path class="st1" d="M77,85.1V274c-4.1,0.6-8.3,0.9-12.4,0.9c-8.3-0.4-16.4-2.1-24.1-5V125.2l37-40.6L77,85.1z"/>
	<path class="st1" d="M135,250.6c-11.2,7.5-23.3,13.6-36,18.2V56.5L135.6,0L135,250.6z"/>
	<path class="st1" d="M158.7,231.7V120.1l34.3,32.1l0.4,42.1C183.2,207.9,171.5,220.5,158.7,231.7z"/>
</g>
<rect x="268.3" y="38.6" class="st0" width="4" height="216.6"/>
<rect x="295.1" y="178.5" class="st0" width="240.7" height="3.5"/>
<g>
	<path class="st0" d="M299.4,146.7c0,0.9,0,1.8,0.1,2.7c0.1,0.5,0.2,0.9,0.5,1.3c0.2,0.3,0.5,0.6,0.8,0.8c0.6,0.3,1.2,0.5,1.8,0.7
		v1.3h-11.5v-1.3c0.8-0.2,1.6-0.5,2.3-1c0.4-0.4,0.6-1,0.7-1.5c0.1-1,0.2-2,0.2-3v-23.5c0-1.3-0.1-2.2-0.1-2.8
		c-0.1-0.4-0.2-0.9-0.5-1.3c-0.2-0.3-0.5-0.6-0.8-0.8c-0.6-0.3-1.2-0.5-1.8-0.7v-1.3h11.5v1.4c-0.6,0.2-1.2,0.4-1.7,0.6
		c-0.3,0.2-0.6,0.5-0.8,0.8c-0.3,0.4-0.4,0.9-0.4,1.3c-0.1,0.9-0.2,1.9-0.2,2.8V146.7z"/>
	<path class="st0" d="M335,153.5h-10.7v-1.3c0.5-0.2,1-0.3,1.5-0.6c0.3-0.2,0.6-0.4,0.8-0.7c0.2-0.4,0.4-0.9,0.5-1.4
		c0.1-0.9,0.2-1.8,0.2-2.7v-7.1c0-1.3,0-2.5-0.1-3.5c0-0.9-0.2-1.7-0.4-2.6c-0.1-0.5-0.3-1.1-0.6-1.6c-0.3-0.4-0.6-0.7-0.9-0.9
		c-0.3-0.2-0.7-0.4-1.1-0.6c-1.2-0.4-2.6-0.3-3.7,0.2c-0.8,0.4-1.5,0.8-2.1,1.5c-0.7,0.6-1.2,1.2-1.7,2c-0.3,0.7-0.5,1.5-0.5,2.3
		v10.1c0,1.1,0,2.2,0.2,3.2c0.1,0.5,0.4,1,0.8,1.4c0.6,0.4,1.3,0.7,2,0.8v1.3h-10.7v-1.3c0.5-0.1,1-0.3,1.5-0.6
		c0.3-0.2,0.6-0.4,0.8-0.7c0.3-0.4,0.4-0.9,0.5-1.3c0.1-0.9,0.2-1.9,0.2-2.8V135c0-1.2,0-2.1,0-2.9c0-0.6-0.2-1.1-0.4-1.7
		c-0.2-0.5-0.5-0.8-1-1c-0.6-0.3-1.2-0.4-1.8-0.6v-1.4l6.4-0.2h1.7l-0.3,4.4l0.4,0.1c1-1,2.1-2,3.2-2.9c0.8-0.5,1.6-1,2.5-1.3
		c0.9-0.3,1.8-0.5,2.7-0.5c0.9,0,1.8,0.1,2.7,0.3c0.7,0.3,1.4,0.6,2,1.1c0.6,0.5,1.1,1.1,1.5,1.8c0.4,0.8,0.7,1.6,0.9,2.5
		c0.2,1.2,0.3,2.5,0.3,3.7v10.3c0,0.9,0,1.8,0.1,2.7c0,0.5,0.1,0.9,0.4,1.3c0.2,0.3,0.5,0.6,0.8,0.8c0.6,0.3,1.2,0.5,1.8,0.7
		L335,153.5z"/>
	<path class="st0" d="M358,123.9c0-1.7,0-3-0.1-3.6c0-0.6-0.1-1.2-0.2-1.8c-0.1-0.4-0.2-0.8-0.5-1.1c-0.2-0.3-0.5-0.5-0.9-0.7
		c-0.6-0.2-1.2-0.4-1.9-0.4v-1.5l6.6-0.3h1.6v31.6c0,1.4,0,2.4,0.1,3c0,0.5,0.1,1,0.4,1.5c0.2,0.4,0.5,0.7,0.8,0.9
		c0.7,0.3,1.4,0.5,2.1,0.7v1.4l-6.4,0.3H358l0.3-4.5l-0.4-0.1c-0.9,1-1.9,1.9-3,2.7c-0.8,0.6-1.8,1.1-2.7,1.5
		c-3.6,1.4-7.6,0.2-9.9-2.8c-1.6-2.3-2.5-5.5-2.5-9.8c-0.1-2.6,0.5-5.2,1.6-7.6c0.9-1.9,2.4-3.6,4.2-4.6c1.8-1,3.9-1.5,6-1.5
		c1.1,0,2.2,0.1,3.3,0.3c1,0.2,2,0.5,3,1L358,123.9z M358,137.4c0-1.1,0-2.3-0.2-3.4c-0.1-0.7-0.4-1.4-0.7-2.1
		c-0.3-0.6-0.7-1.1-1.2-1.5c-0.5-0.4-1.1-0.7-1.7-0.8c-0.7-0.2-1.4-0.3-2.2-0.3c-2.1-0.1-4.2,1-5.3,2.8c-1.2,1.8-1.8,4.5-1.8,8
		c0,3.5,0.5,6.1,1.5,7.9c0.8,1.8,2.6,2.9,4.6,2.8c0.7,0,1.3,0,2-0.2c0.5-0.2,1.1-0.4,1.6-0.7c0.5-0.4,1.1-0.8,1.6-1.2
		c0.4-0.5,0.8-0.9,1.2-1.5c0.2-0.5,0.4-1,0.6-1.5c0.1-0.7,0.2-1.4,0.2-2.2L358,137.4z"/>
	<path class="st0" d="M378.4,116.8v5.3h-5v-5.3H378.4z M370.6,152.2c0.5-0.1,1-0.3,1.5-0.6c0.3-0.2,0.6-0.4,0.8-0.7
		c0.3-0.4,0.4-0.9,0.5-1.3c0.1-0.9,0.2-1.9,0.2-2.8V135c0-1.2,0-2.1-0.1-2.9c0-0.6-0.1-1.1-0.4-1.7c-0.2-0.5-0.5-0.8-1-1
		c-0.6-0.3-1.2-0.4-1.8-0.6v-1.4l6.3-0.2h1.7v19.5c0,1.1,0,2.2,0.2,3.2c0.1,0.5,0.4,1,0.8,1.4c0.6,0.4,1.3,0.7,2,0.8v1.3h-10.7
		V152.2z"/>
	<path class="st0" d="M393.9,127.5v1.3c-0.6,0.1-1.2,0.3-1.7,0.6c-0.3,0.2-0.6,0.4-0.8,0.7c-0.2,0.4-0.3,0.8-0.3,1.2
		c0,0.5,0.1,1,0.2,1.6c0.1,0.5,0.3,1.1,0.6,1.8l4.7,13.8l5.6-13.2c0.3-0.8,0.6-1.6,0.8-2.1c0.1-0.5,0.2-1.1,0.2-1.6
		c0-0.6-0.2-1.3-0.6-1.7c-0.7-0.5-1.5-0.8-2.3-1v-1.3h10.2v1.3c-0.6,0.1-1.1,0.3-1.6,0.7c-0.5,0.4-0.9,0.9-1.2,1.4
		c-0.5,0.9-0.9,1.8-1.3,2.7l-9.2,20.2h-3.2l-7.4-20.4c-0.3-1-0.7-1.9-1.2-2.8c-0.2-0.5-0.5-0.9-1-1.2c-0.5-0.3-1-0.5-1.6-0.6v-1.3
		H393.9z"/>
	<path class="st0" d="M420.9,116.8v5.3h-5v-5.3H420.9z M413.1,152.2c0.5-0.1,1-0.3,1.5-0.6c0.3-0.2,0.6-0.4,0.8-0.7
		c0.3-0.4,0.4-0.9,0.5-1.3c0.1-0.9,0.2-1.9,0.2-2.8V135c0-1.2,0-2.1-0.1-2.9c0-0.6-0.2-1.1-0.4-1.7c-0.2-0.5-0.5-0.8-1-1
		c-0.6-0.3-1.2-0.4-1.8-0.6v-1.4l6.3-0.2h1.7v19.5c0,1.1,0,2.2,0.2,3.2c0.1,0.5,0.4,1,0.8,1.4c0.6,0.4,1.3,0.7,2,0.8v1.3h-10.7
		V152.2z"/>
	<path class="st0" d="M447,123.9c0-1.7,0-3,0-3.6c0-0.6-0.1-1.2-0.2-1.8c-0.1-0.4-0.2-0.8-0.4-1.1c-0.2-0.3-0.5-0.5-0.9-0.7
		c-0.6-0.2-1.2-0.4-1.9-0.4v-1.5l6.6-0.3h1.6v31.6c0,1.4,0,2.4,0.1,3c0,0.5,0.2,1,0.4,1.5c0.2,0.4,0.5,0.7,0.8,0.9
		c0.7,0.3,1.3,0.5,2.1,0.7v1.4l-6.4,0.3H447l0.3-4.5l-0.4-0.1c-0.9,1-1.9,1.9-3,2.7c-0.8,0.6-1.8,1.1-2.7,1.5
		c-3.6,1.4-7.6,0.2-9.9-2.8c-1.6-2.3-2.5-5.5-2.5-9.8c-0.1-2.6,0.5-5.2,1.6-7.6c0.9-1.9,2.4-3.6,4.2-4.6c1.8-1,3.9-1.5,6-1.5
		c1.1,0,2.2,0.1,3.3,0.3c1,0.2,2,0.5,3,1L447,123.9z M447,137.4c0-1.1,0-2.3-0.2-3.4c-0.1-0.7-0.4-1.4-0.7-2.1
		c-0.3-0.6-0.7-1.1-1.2-1.5c-0.5-0.4-1.1-0.7-1.7-0.8c-0.7-0.2-1.4-0.3-2.2-0.3c-2.1-0.1-4.2,1-5.3,2.8c-1.2,1.8-1.8,4.5-1.8,8
		s0.5,6.1,1.5,7.9c0.8,1.7,2.6,2.8,4.5,2.7c0.7,0,1.3,0,2-0.2c0.5-0.2,1.1-0.4,1.6-0.7c0.5-0.4,1.1-0.8,1.6-1.2
		c0.4-0.5,0.8-0.9,1.2-1.5c0.2-0.5,0.4-1,0.6-1.5c0.1-0.7,0.2-1.4,0.2-2.2V137.4z"/>
	<path class="st0" d="M458.9,127.5h7.8v13.9c0,1.6,0,3.2,0.2,4.9c0.1,0.9,0.4,1.7,0.7,2.5c0.4,0.6,0.8,1,1.4,1.4
		c0.8,0.4,1.6,0.6,2.5,0.6c0.7,0,1.3-0.1,2-0.4c0.8-0.4,1.5-0.9,2.1-1.5c0.7-0.6,1.2-1.2,1.7-2c0.4-0.7,0.6-1.5,0.6-2.3v-10.2
		c0-0.8,0-1.6-0.1-2.3c0-0.4-0.1-0.9-0.3-1.3c-0.1-0.3-0.3-0.5-0.5-0.8c-0.2-0.2-0.5-0.4-0.7-0.6c-0.5-0.2-1-0.4-1.6-0.5v-1.3h7.8
		v18.6c0,1.4,0,2.4,0.1,3c0,0.5,0.1,1,0.3,1.5c0.2,0.4,0.5,0.7,0.8,0.9c0.7,0.3,1.3,0.5,2.1,0.7v1.4l-6.2,0.3h-1.7l0.2-4.5l-0.4-0.1
		c-1.2,1.4-2.7,2.6-4.3,3.6c-1.3,0.7-2.7,1.1-4.1,1.2c-1.4,0.1-2.9-0.3-4.1-1c-1.1-0.7-1.9-1.7-2.4-2.9c-0.6-1.8-0.9-3.6-0.8-5.5
		v-10.3c0-1.1,0-2.1-0.2-3.2c-0.1-0.5-0.3-1-0.7-1.3c-0.6-0.5-1.4-0.8-2.2-1L458.9,127.5z"/>
	<path class="st0" d="M506.1,149.6l-0.5-0.1c-1.3,1.4-2.8,2.6-4.5,3.5c-1.4,0.7-2.9,1-4.4,1c-1.3,0-2.5-0.3-3.6-0.8
		c-1-0.5-1.9-1.3-2.5-2.2c-0.6-1-0.9-2.2-0.8-3.4c0-2.7,1.3-4.7,4-6.2s6.5-2.2,11.8-2.5v-1.7c0-1.5-0.1-3-0.5-4.5
		c-0.3-1-0.9-1.8-1.7-2.4c-0.9-0.6-2-0.8-3.1-0.8c-1.2-0.1-2.5,0.3-3.5,1.1c-1,0.9-1.6,2.1-2,3.3h-3.6v-3.6c1.4-0.7,2.9-1.4,4.4-2
		c1.1-0.4,2.3-0.8,3.5-1.1c1.2-0.2,2.4-0.3,3.6-0.3c1.5-0.1,2.9,0.2,4.3,0.8c1.1,0.6,1.9,1.5,2.5,2.6c0.6,1.7,0.9,3.5,0.8,5.4v12.3
		c0.1,0.6,0.1,1.1,0.2,1.6c0.1,0.4,0.2,0.8,0.4,1.1c0.2,0.3,0.5,0.5,0.8,0.7c0.6,0.3,1.1,0.5,1.7,0.6v1.3h-7.5L506.1,149.6z
		 M505.6,141.1c-3.7,0.1-6.4,0.6-8.3,1.5c-1.7,0.7-2.8,2.4-2.7,4.2c-0.1,0.9,0.1,1.7,0.6,2.5c0.4,0.6,0.9,1,1.6,1.3
		c1.9,0.6,3.9,0.4,5.6-0.6c0.9-0.6,1.7-1.3,2.3-2.3c0.5-0.8,0.8-1.8,0.8-2.8L505.6,141.1z"/>
	<path class="st0" d="M524.8,146.7c0,1.1,0,2.2,0.2,3.2c0.1,0.6,0.4,1.1,0.8,1.4c0.6,0.4,1.2,0.7,2,0.8v1.3h-10.8v-1.3
		c0.7-0.2,1.3-0.4,1.9-0.7c0.3-0.2,0.6-0.5,0.7-0.9c0.2-0.5,0.3-1,0.3-1.5c0.1-0.6,0.1-1.4,0.1-2.4v-22.8c0-1.7,0-3,0-3.6
		c0-0.6-0.1-1.2-0.2-1.8c-0.1-0.4-0.3-0.8-0.5-1.1c-0.2-0.3-0.5-0.5-0.8-0.7c-0.6-0.2-1.2-0.4-1.9-0.4v-1.5l6.5-0.3h1.7L524.8,146.7
		z"/>
	<path class="st0" d="M544.1,116.3h29.5v9.5h-2.7c-0.3-1.3-0.7-2.5-1.2-3.7c-0.3-0.8-0.7-1.4-1.2-2.1c-0.4-0.4-0.9-0.8-1.4-1
		c-0.7-0.3-1.5-0.4-2.2-0.3h-3.5v27.9c0,0.9,0,1.7,0.2,2.6c0,0.6,0.2,1.1,0.6,1.5c0.2,0.4,0.6,0.7,1,0.9c0.6,0.3,1.3,0.5,2,0.6v1.3
		h-12.4v-1.3c0.5-0.1,1-0.3,1.4-0.4c0.4-0.1,0.7-0.3,1.1-0.6c0.3-0.2,0.5-0.5,0.6-0.8c0.2-0.4,0.4-0.9,0.4-1.3
		c0.1-0.8,0.1-1.7,0.1-2.5v-27.9h-3.4c-0.7,0-1.4,0.1-2.1,0.3c-0.6,0.2-1.1,0.5-1.5,1c-0.6,0.7-1,1.4-1.3,2.2
		c-0.4,1.2-0.8,2.4-1.1,3.6h-2.8V116.3z"/>
	<path class="st0" d="M589.4,149.6l-0.4-0.1c-1.3,1.4-2.8,2.6-4.5,3.5c-1.4,0.7-2.9,1-4.4,1c-1.3,0-2.5-0.3-3.6-0.8
		c-1-0.5-1.8-1.3-2.4-2.2c-0.6-1-0.9-2.2-0.8-3.4c0-2.7,1.3-4.7,4-6.2c2.7-1.5,6.5-2.2,11.8-2.5v-1.7c0-1.5-0.1-3-0.5-4.5
		c-0.3-1-0.9-1.8-1.7-2.4c-0.9-0.6-2-0.8-3.1-0.8c-1.3-0.1-2.6,0.3-3.6,1.1c-1,0.9-1.6,2.1-2,3.3h-3.6v-3.6c1.4-0.7,2.9-1.4,4.4-2
		c1.1-0.4,2.3-0.8,3.5-1.1c1.2-0.2,2.4-0.3,3.6-0.3c1.5-0.1,2.9,0.2,4.3,0.8c1.1,0.6,2,1.5,2.5,2.6c0.6,1.7,0.9,3.5,0.8,5.4v12.3
		c0.1,0.6,0.1,1.1,0.2,1.6c0.1,0.4,0.2,0.8,0.5,1.1c0.2,0.3,0.5,0.5,0.8,0.7c0.6,0.3,1.1,0.5,1.7,0.6v1.3h-7.5L589.4,149.6z
		 M588.9,141.1c-3.7,0.1-6.4,0.6-8.3,1.5c-1.7,0.7-2.8,2.4-2.7,4.2c-0.1,0.9,0.1,1.7,0.6,2.5c0.4,0.6,0.9,1,1.6,1.3
		c0.7,0.2,1.5,0.4,2.3,0.3c1.2,0,2.3-0.3,3.3-0.9c1-0.6,1.8-1.4,2.3-2.3c0.5-0.8,0.8-1.8,0.8-2.8V141.1z"/>
	<path class="st0" d="M612.4,137.8l3.5-4.5c0.4-0.5,0.7-0.9,1-1.5c0.2-0.5,0.3-0.9,0.3-1.5c0-0.4-0.1-0.8-0.4-1
		c-0.4-0.3-0.9-0.6-1.5-0.6v-1.3h8.9v1.3c-0.8,0.3-1.5,0.7-2.1,1.2c-1,0.8-1.8,1.8-2.6,2.8l-5.6,6.9l6.2,8.4c0.7,1,1.5,1.9,2.4,2.8
		c0.6,0.6,1.3,1,2.1,1.3v1.3h-10.9v-1.3c1.5-0.2,2.2-0.7,2.2-1.7c0-0.4,0-0.8-0.2-1.1c-0.2-0.4-0.4-0.8-0.7-1.2l-4-5.5l-4.2,5.5
		c-0.3,0.4-0.5,0.7-0.7,1.1c-0.2,0.3-0.2,0.7-0.2,1.1c0,0.5,0.2,0.9,0.5,1.2c0.4,0.3,1,0.5,1.6,0.6v1.3h-9.1v-1.3
		c0.6-0.2,1.1-0.5,1.6-0.8c0.6-0.3,1.1-0.8,1.5-1.2c0.5-0.6,1.1-1.3,2-2.3l5.7-7l-5.8-8c-0.8-1.1-1.5-1.8-2-2.3
		c-0.4-0.4-0.8-0.8-1.3-1.1c-0.4-0.3-0.8-0.4-1.2-0.6v-1.3h10.7v1.3c-1.5,0.2-2.2,0.8-2.2,1.7c0,0.4,0.1,0.9,0.3,1.3
		c0.3,0.5,0.6,1,0.9,1.4L612.4,137.8z"/>
	<path class="st0" d="M645.6,133.5H643c-0.3-0.9-0.8-1.8-1.5-2.6c-0.5-0.6-1.1-1-1.8-1.3c-0.8-0.3-1.7-0.4-2.5-0.4
		c-1.3,0-2.5,0.3-3.5,1.1c-0.8,0.7-1.3,1.7-1.3,2.8c0,0.7,0.2,1.4,0.5,2.1c0.4,0.6,1,1.1,1.6,1.5c1.2,0.8,2.5,1.4,3.8,1.9
		c1.5,0.6,2.9,1.3,4.3,2.2c0.9,0.6,1.8,1.4,2.4,2.3c0.6,1,0.9,2.1,0.8,3.2c0,1.2-0.2,2.5-0.7,3.6c-0.5,0.9-1.2,1.8-2.1,2.4
		c-1,0.7-2,1.1-3.2,1.3c-1.3,0.3-2.7,0.4-4,0.4c-1.5,0-3-0.1-4.5-0.3c-1.5-0.2-2.8-0.6-4.2-0.9v-5.7h2.7c0.3,1.4,1.1,2.7,2.2,3.7
		c1.2,0.8,2.6,1.2,4,1.1c0.7,0,1.3-0.1,2-0.2c0.6-0.2,1.2-0.4,1.7-0.7c0.5-0.3,0.9-0.8,1.2-1.3c0.6-1.4,0.5-2.9-0.1-4.3
		c-0.5-0.6-1.1-1.2-1.7-1.6c-1.3-0.7-2.6-1.4-4-1.9c-1.4-0.6-2.7-1.3-4-2.1c-0.9-0.6-1.7-1.3-2.3-2.3c-0.6-0.9-0.9-2.1-0.9-3.2
		c0-1.4,0.4-2.7,1.2-3.9c0.9-1.2,2.1-2.1,3.5-2.5c1.7-0.6,3.5-0.9,5.4-0.9c1.2,0,2.3,0.1,3.5,0.2c1.4,0.2,2.8,0.4,4.2,0.7
		L645.6,133.5z"/>
	<path class="st0" d="M673.1,148.9c-1,1.1-2.1,2-3.2,2.8c-1,0.7-2,1.3-3.2,1.6c-1.2,0.4-2.5,0.6-3.9,0.6c-3.7,0-6.6-1.1-8.5-3.3
		c-1.9-2.2-2.9-5.6-2.9-9.9c-0.1-2.5,0.4-4.9,1.5-7.2c0.9-2,2.3-3.6,4.1-4.8c1.9-1.1,4-1.7,6.2-1.7c1.6-0.1,3.2,0.3,4.7,0.9
		c1.2,0.5,2.3,1.3,3.1,2.3c0.9,1.1,1.5,2.5,1.8,3.9c0.5,2,0.7,4,0.7,6h-17.2v0.5c0,1.8,0.2,3.7,0.7,5.4c0.4,1.4,1.2,2.6,2.3,3.5
		c1.3,0.8,2.8,1.3,4.3,1.2c1.4,0,2.7-0.3,4-0.8c1.4-0.7,2.6-1.6,3.6-2.7L673.1,148.9z M668.5,137.9c0-1.6-0.3-3.2-0.7-4.8
		c-0.3-1.1-0.9-2.1-1.7-2.9c-0.8-0.7-1.9-1-3-1c-1.8,0-3.5,0.8-4.5,2.3c-1.2,1.9-1.9,4.1-2,6.4L668.5,137.9z"/>
	<path class="st0" d="M685.8,132l0.4,0.1c0.8-1,1.8-2,2.8-2.9c0.8-0.7,1.7-1.2,2.7-1.6c1.1-0.4,2.2-0.6,3.4-0.6c1,0,1.9,0,2.9,0.2
		v6.2h-3.1c-0.3-0.8-0.8-1.5-1.4-2.1c-0.6-0.5-1.3-0.7-2-0.7c-0.7,0-1.4,0.2-2,0.6c-0.7,0.4-1.4,1-1.9,1.7c-0.5,0.6-0.9,1.3-1.2,2.1
		c-0.2,0.7-0.3,1.5-0.3,2.2v9.5c0,1.1,0.1,2.3,0.3,3.4c0.2,0.6,0.5,1.1,1,1.4c0.7,0.3,1.4,0.6,2.1,0.7v1.3h-11v-1.3
		c0.5-0.1,1-0.3,1.5-0.6c0.3-0.2,0.6-0.4,0.8-0.7c0.3-0.4,0.4-0.9,0.5-1.3c0.1-0.9,0.2-1.9,0.2-2.8V135c0-1.2,0-2.1,0-2.9
		c0-0.6-0.2-1.1-0.4-1.7c-0.2-0.5-0.5-0.8-1-1c-0.6-0.3-1.2-0.4-1.9-0.6v-1.4l6.4-0.3h1.7L685.8,132z"/>
	<path class="st0" d="M710.5,127.5v1.3c-0.6,0.1-1.2,0.3-1.7,0.6c-0.3,0.2-0.6,0.4-0.8,0.7c-0.2,0.4-0.3,0.8-0.3,1.2
		c0,0.5,0.1,1,0.2,1.6c0.1,0.5,0.3,1.1,0.6,1.8l4.7,13.8l5.6-13.2c0.3-0.8,0.6-1.6,0.8-2.1c0.1-0.5,0.2-1.1,0.2-1.6
		c0-0.6-0.2-1.3-0.6-1.7c-0.7-0.5-1.5-0.8-2.3-1v-1.3h10.2v1.3c-0.6,0.1-1.1,0.3-1.6,0.7c-0.5,0.4-0.9,0.9-1.2,1.4
		c-0.5,0.9-0.9,1.8-1.3,2.7l-9.2,20.2h-3.3l-7.4-20.4c-0.3-1-0.7-1.9-1.2-2.8c-0.2-0.5-0.5-0.9-1-1.2c-0.5-0.3-1-0.5-1.6-0.6v-1.3
		H710.5z"/>
	<path class="st0" d="M737.4,116.8v5.3h-5v-5.3H737.4z M729.6,152.2c0.5-0.1,1-0.3,1.5-0.6c0.3-0.2,0.6-0.4,0.8-0.7
		c0.3-0.4,0.4-0.9,0.5-1.3c0.1-0.9,0.2-1.9,0.2-2.8V135c0-1.2,0-2.1,0-2.9c0-0.6-0.2-1.1-0.4-1.7c-0.2-0.5-0.5-0.8-1-1
		c-0.6-0.3-1.2-0.4-1.8-0.6v-1.4l6.3-0.2h1.7v19.5c0,1.1,0,2.2,0.2,3.2c0.1,0.5,0.4,1,0.8,1.4c0.6,0.4,1.3,0.7,2,0.8v1.3h-10.7
		L729.6,152.2z"/>
	<path class="st0" d="M765.4,128.1v5.7H762c-0.2-1-0.6-1.9-1.1-2.8c-0.4-0.6-1-1.1-1.6-1.4c-0.7-0.3-1.5-0.5-2.2-0.4
		c-1.2,0-2.4,0.4-3.3,1.2c-1.1,1-1.9,2.3-2.3,3.7c-0.6,2-0.9,4.1-0.8,6.1c0,1.4,0.1,2.8,0.3,4.2c0.2,1.2,0.6,2.3,1.1,3.3
		c0.5,0.9,1.2,1.6,2.1,2.1c1,0.5,2.1,0.8,3.2,0.8c1.2,0,2.4-0.2,3.5-0.7c1.3-0.7,2.4-1.6,3.4-2.6l1.6,1.8c-0.7,0.9-1.6,1.7-2.5,2.4
		c-0.7,0.5-1.5,1-2.3,1.4c-0.8,0.3-1.6,0.6-2.4,0.8c-0.8,0.2-1.7,0.3-2.6,0.3c-3,0.2-5.9-1.1-7.9-3.4c-1.8-2.3-2.7-5.6-2.7-9.9
		c-0.1-2.5,0.5-5,1.6-7.2c0.9-2,2.4-3.6,4.2-4.8c1.9-1.1,4.1-1.7,6.4-1.7c1.4,0,2.8,0.1,4.1,0.3
		C762.9,127.5,764.1,127.8,765.4,128.1z"/>
	<path class="st0" d="M791.5,148.9c-1,1.1-2.1,2-3.2,2.8c-1,0.7-2,1.3-3.2,1.6c-1.2,0.4-2.5,0.6-3.9,0.6c-3.7,0-6.6-1.1-8.5-3.3
		c-1.9-2.2-2.8-5.6-2.8-9.9c-0.1-2.5,0.4-4.9,1.5-7.2c0.9-2,2.3-3.6,4.1-4.8c1.9-1.1,4-1.7,6.2-1.7c1.6-0.1,3.2,0.3,4.7,0.9
		c1.2,0.5,2.3,1.3,3.1,2.3c0.9,1.1,1.5,2.5,1.8,3.9c0.5,2,0.7,4,0.7,6h-17.1v0.5c0,1.8,0.2,3.7,0.7,5.4c0.4,1.4,1.2,2.6,2.3,3.5
		c1.3,0.8,2.8,1.3,4.3,1.2c1.4,0,2.7-0.3,4-0.8c1.4-0.7,2.6-1.6,3.6-2.7L791.5,148.9z M786.9,137.9c0-1.6-0.3-3.2-0.7-4.8
		c-0.3-1.1-0.9-2.1-1.7-2.9c-0.8-0.7-1.9-1-3-1c-1.8,0-3.5,0.8-4.5,2.3c-1.2,1.9-1.9,4.1-2,6.4L786.9,137.9z"/>
</g>
</svg>
