<?xml version="1.0" encoding="UTF-8" standalone="no"?>
<!DOCTYPE svg PUBLIC "-//W3C//DTD SVG 1.1//EN" "http://www.w3.org/Graphics/SVG/1.1/DTD/svg11.dtd">
<svg width="100%" height="100%" viewBox="0 0 6107 2293" version="1.1" xmlns="http://www.w3.org/2000/svg" xmlns:xlink="http://www.w3.org/1999/xlink" xml:space="preserve" xmlns:serif="http://www.serif.com/" style="fill-rule:evenodd;clip-rule:evenodd;stroke-linejoin:round;stroke-miterlimit:2;">
    <g transform="matrix(7.34234,0,0,7.34234,-30708.9,-17111.2)">
        <g transform="matrix(50,0,0,50,4762.37,2534.3)">
            <path d="M0.506,-0.089C0.506,-0.084 0.506,-0.08 0.505,-0.076C0.505,-0.072 0.504,-0.068 0.504,-0.065C0.503,-0.063 0.502,-0.06 0.5,-0.058C0.499,-0.055 0.497,-0.053 0.494,-0.049C0.49,-0.046 0.484,-0.041 0.473,-0.034C0.463,-0.028 0.45,-0.021 0.434,-0.015C0.419,-0.009 0.401,-0.003 0.381,0.001C0.361,0.006 0.339,0.008 0.315,0.008C0.274,0.008 0.237,0.001 0.204,-0.013C0.171,-0.026 0.143,-0.047 0.12,-0.073C0.097,-0.1 0.079,-0.133 0.066,-0.172C0.054,-0.211 0.047,-0.257 0.047,-0.308C0.047,-0.36 0.054,-0.407 0.068,-0.448C0.081,-0.489 0.1,-0.524 0.125,-0.552C0.149,-0.58 0.178,-0.602 0.212,-0.617C0.246,-0.632 0.284,-0.64 0.325,-0.64C0.343,-0.64 0.361,-0.638 0.378,-0.635C0.396,-0.631 0.412,-0.627 0.426,-0.622C0.441,-0.616 0.454,-0.61 0.465,-0.604C0.477,-0.597 0.485,-0.591 0.489,-0.587C0.493,-0.582 0.496,-0.579 0.498,-0.577C0.499,-0.574 0.5,-0.572 0.501,-0.569C0.502,-0.566 0.502,-0.562 0.503,-0.558C0.503,-0.553 0.503,-0.548 0.503,-0.542C0.503,-0.536 0.503,-0.53 0.502,-0.526C0.502,-0.521 0.501,-0.517 0.5,-0.514C0.498,-0.511 0.497,-0.509 0.495,-0.508C0.493,-0.506 0.491,-0.505 0.488,-0.505C0.484,-0.505 0.477,-0.509 0.469,-0.515C0.461,-0.521 0.451,-0.528 0.438,-0.536C0.425,-0.544 0.409,-0.551 0.391,-0.557C0.372,-0.563 0.35,-0.566 0.325,-0.566C0.297,-0.566 0.271,-0.561 0.248,-0.55C0.225,-0.538 0.206,-0.522 0.189,-0.5C0.173,-0.478 0.161,-0.452 0.152,-0.42C0.143,-0.389 0.138,-0.353 0.138,-0.313C0.138,-0.272 0.142,-0.237 0.151,-0.206C0.16,-0.176 0.172,-0.15 0.188,-0.129C0.204,-0.108 0.224,-0.093 0.248,-0.082C0.271,-0.072 0.298,-0.066 0.327,-0.066C0.352,-0.066 0.374,-0.069 0.393,-0.076C0.412,-0.082 0.427,-0.089 0.441,-0.096C0.454,-0.104 0.465,-0.111 0.473,-0.117C0.482,-0.123 0.488,-0.126 0.493,-0.126C0.495,-0.126 0.497,-0.126 0.499,-0.125C0.501,-0.124 0.502,-0.122 0.503,-0.119C0.504,-0.117 0.505,-0.113 0.505,-0.108C0.506,-0.103 0.506,-0.097 0.506,-0.089Z" style="fill:rgb(20,35,115);fill-rule:nonzero;"/>
        </g>
        <g transform="matrix(50,0,0,50,4790.03,2534.3)">
            <path d="M0.483,-0.237C0.483,-0.201 0.479,-0.168 0.469,-0.138C0.46,-0.108 0.446,-0.082 0.427,-0.06C0.408,-0.038 0.385,-0.021 0.357,-0.009C0.329,0.003 0.296,0.009 0.259,0.009C0.223,0.009 0.191,0.004 0.164,-0.007C0.137,-0.018 0.115,-0.033 0.097,-0.054C0.079,-0.074 0.066,-0.099 0.057,-0.128C0.048,-0.158 0.044,-0.191 0.044,-0.228C0.044,-0.264 0.049,-0.297 0.058,-0.327C0.067,-0.357 0.081,-0.383 0.1,-0.405C0.119,-0.427 0.142,-0.444 0.17,-0.456C0.198,-0.468 0.231,-0.474 0.268,-0.474C0.304,-0.474 0.336,-0.468 0.363,-0.458C0.389,-0.447 0.412,-0.431 0.43,-0.411C0.448,-0.39 0.461,-0.365 0.47,-0.336C0.479,-0.307 0.483,-0.274 0.483,-0.237ZM0.398,-0.231C0.398,-0.255 0.396,-0.278 0.392,-0.299C0.387,-0.32 0.38,-0.339 0.37,-0.354C0.36,-0.37 0.346,-0.383 0.329,-0.392C0.312,-0.402 0.29,-0.406 0.265,-0.406C0.241,-0.406 0.22,-0.402 0.203,-0.394C0.186,-0.385 0.172,-0.373 0.161,-0.358C0.15,-0.342 0.142,-0.324 0.136,-0.303C0.131,-0.282 0.128,-0.258 0.128,-0.233C0.128,-0.209 0.131,-0.187 0.135,-0.166C0.139,-0.144 0.147,-0.126 0.157,-0.11C0.167,-0.094 0.181,-0.082 0.198,-0.073C0.215,-0.063 0.237,-0.059 0.263,-0.059C0.286,-0.059 0.306,-0.063 0.324,-0.071C0.341,-0.08 0.355,-0.092 0.366,-0.107C0.377,-0.122 0.385,-0.14 0.391,-0.162C0.396,-0.183 0.398,-0.206 0.398,-0.231Z" style="fill:rgb(20,35,115);fill-rule:nonzero;"/>
        </g>
        <g transform="matrix(50,0,0,50,4817.4,2534.3)">
            <path d="M0.332,-0.423C0.332,-0.416 0.331,-0.41 0.331,-0.405C0.331,-0.4 0.33,-0.396 0.329,-0.393C0.328,-0.391 0.327,-0.388 0.325,-0.387C0.324,-0.385 0.322,-0.385 0.319,-0.385C0.317,-0.385 0.314,-0.385 0.31,-0.387C0.306,-0.388 0.302,-0.39 0.297,-0.391C0.292,-0.393 0.287,-0.394 0.281,-0.396C0.275,-0.397 0.269,-0.397 0.262,-0.397C0.254,-0.397 0.246,-0.396 0.238,-0.393C0.23,-0.389 0.222,-0.384 0.214,-0.376C0.205,-0.369 0.196,-0.359 0.187,-0.347C0.177,-0.334 0.167,-0.319 0.155,-0.301L0.155,-0.012C0.155,-0.01 0.155,-0.007 0.153,-0.006C0.152,-0.004 0.15,-0.002 0.147,-0.001C0.144,0 0.14,0.001 0.135,0.002C0.13,0.003 0.123,0.003 0.115,0.003C0.107,0.003 0.1,0.003 0.095,0.002C0.09,0.001 0.086,0 0.083,-0.001C0.08,-0.002 0.078,-0.004 0.076,-0.006C0.075,-0.007 0.075,-0.01 0.075,-0.012L0.075,-0.452C0.075,-0.454 0.075,-0.456 0.076,-0.458C0.077,-0.46 0.079,-0.462 0.082,-0.463C0.085,-0.465 0.089,-0.466 0.093,-0.466C0.098,-0.467 0.104,-0.467 0.111,-0.467C0.118,-0.467 0.124,-0.467 0.129,-0.466C0.134,-0.466 0.138,-0.465 0.14,-0.463C0.143,-0.462 0.145,-0.46 0.146,-0.458C0.147,-0.456 0.147,-0.454 0.147,-0.452L0.147,-0.388C0.16,-0.405 0.171,-0.42 0.181,-0.431C0.192,-0.442 0.202,-0.45 0.211,-0.457C0.221,-0.463 0.23,-0.468 0.24,-0.47C0.249,-0.472 0.258,-0.474 0.268,-0.474C0.272,-0.474 0.277,-0.473 0.282,-0.473C0.287,-0.472 0.293,-0.472 0.299,-0.47C0.305,-0.469 0.31,-0.467 0.315,-0.466C0.319,-0.464 0.323,-0.463 0.325,-0.461C0.327,-0.459 0.328,-0.458 0.329,-0.456C0.329,-0.455 0.33,-0.453 0.33,-0.451C0.331,-0.448 0.331,-0.445 0.331,-0.441C0.331,-0.436 0.332,-0.43 0.332,-0.423Z" style="fill:rgb(20,35,115);fill-rule:nonzero;"/>
        </g>
        <g transform="matrix(50,0,0,50,4835.83,2534.3)">
            <path d="M0.479,-0.239C0.479,-0.2 0.475,-0.166 0.467,-0.135C0.458,-0.105 0.446,-0.079 0.43,-0.057C0.414,-0.036 0.394,-0.02 0.37,-0.008C0.346,0.003 0.319,0.009 0.289,0.009C0.276,0.009 0.264,0.008 0.252,0.005C0.241,0.003 0.231,-0.001 0.22,-0.007C0.209,-0.012 0.199,-0.019 0.188,-0.028C0.178,-0.036 0.167,-0.046 0.155,-0.058L0.155,0.162C0.155,0.165 0.155,0.167 0.153,0.169C0.152,0.171 0.15,0.173 0.147,0.174C0.144,0.175 0.14,0.176 0.135,0.177C0.13,0.177 0.123,0.178 0.115,0.178C0.107,0.178 0.1,0.177 0.095,0.177C0.09,0.176 0.086,0.175 0.083,0.174C0.08,0.173 0.078,0.171 0.076,0.169C0.075,0.167 0.075,0.165 0.075,0.162L0.075,-0.452C0.075,-0.455 0.075,-0.457 0.076,-0.459C0.077,-0.461 0.079,-0.462 0.082,-0.463C0.085,-0.465 0.089,-0.466 0.093,-0.466C0.098,-0.467 0.103,-0.467 0.11,-0.467C0.117,-0.467 0.122,-0.467 0.127,-0.466C0.131,-0.466 0.135,-0.465 0.138,-0.463C0.141,-0.462 0.143,-0.461 0.144,-0.459C0.145,-0.457 0.146,-0.455 0.146,-0.452L0.146,-0.393C0.159,-0.406 0.172,-0.418 0.184,-0.428C0.196,-0.438 0.209,-0.447 0.221,-0.453C0.234,-0.46 0.247,-0.465 0.26,-0.469C0.273,-0.472 0.287,-0.474 0.302,-0.474C0.334,-0.474 0.361,-0.467 0.383,-0.455C0.406,-0.443 0.424,-0.426 0.438,-0.404C0.452,-0.383 0.463,-0.358 0.469,-0.329C0.476,-0.301 0.479,-0.271 0.479,-0.239ZM0.394,-0.229C0.394,-0.252 0.392,-0.274 0.389,-0.295C0.385,-0.316 0.38,-0.334 0.371,-0.351C0.363,-0.367 0.352,-0.38 0.338,-0.39C0.324,-0.399 0.306,-0.404 0.286,-0.404C0.275,-0.404 0.265,-0.403 0.255,-0.4C0.245,-0.397 0.235,-0.392 0.224,-0.385C0.214,-0.378 0.203,-0.37 0.191,-0.359C0.18,-0.348 0.168,-0.334 0.155,-0.318L0.155,-0.144C0.177,-0.117 0.198,-0.096 0.218,-0.082C0.238,-0.067 0.259,-0.06 0.281,-0.06C0.301,-0.06 0.318,-0.065 0.333,-0.075C0.347,-0.084 0.359,-0.097 0.368,-0.114C0.377,-0.13 0.383,-0.148 0.388,-0.168C0.392,-0.189 0.394,-0.209 0.394,-0.229Z" style="fill:rgb(20,35,115);fill-rule:nonzero;"/>
        </g>
        <g transform="matrix(50,0,0,50,4863.1,2534.3)">
            <path d="M0.483,-0.237C0.483,-0.201 0.479,-0.168 0.469,-0.138C0.46,-0.108 0.446,-0.082 0.427,-0.06C0.408,-0.038 0.385,-0.021 0.357,-0.009C0.329,0.003 0.296,0.009 0.259,0.009C0.223,0.009 0.191,0.004 0.164,-0.007C0.137,-0.018 0.115,-0.033 0.097,-0.054C0.079,-0.074 0.066,-0.099 0.057,-0.128C0.048,-0.158 0.044,-0.191 0.044,-0.228C0.044,-0.264 0.049,-0.297 0.058,-0.327C0.067,-0.357 0.081,-0.383 0.1,-0.405C0.119,-0.427 0.142,-0.444 0.17,-0.456C0.198,-0.468 0.231,-0.474 0.268,-0.474C0.304,-0.474 0.336,-0.468 0.363,-0.458C0.389,-0.447 0.412,-0.431 0.43,-0.411C0.448,-0.39 0.461,-0.365 0.47,-0.336C0.479,-0.307 0.483,-0.274 0.483,-0.237ZM0.398,-0.231C0.398,-0.255 0.396,-0.278 0.392,-0.299C0.387,-0.32 0.38,-0.339 0.37,-0.354C0.36,-0.37 0.346,-0.383 0.329,-0.392C0.312,-0.402 0.29,-0.406 0.265,-0.406C0.241,-0.406 0.22,-0.402 0.203,-0.394C0.186,-0.385 0.172,-0.373 0.161,-0.358C0.15,-0.342 0.142,-0.324 0.136,-0.303C0.131,-0.282 0.128,-0.258 0.128,-0.233C0.128,-0.209 0.131,-0.187 0.135,-0.166C0.139,-0.144 0.147,-0.126 0.157,-0.11C0.167,-0.094 0.181,-0.082 0.198,-0.073C0.215,-0.063 0.237,-0.059 0.263,-0.059C0.286,-0.059 0.306,-0.063 0.324,-0.071C0.341,-0.08 0.355,-0.092 0.366,-0.107C0.377,-0.122 0.385,-0.14 0.391,-0.162C0.396,-0.183 0.398,-0.206 0.398,-0.231Z" style="fill:rgb(20,35,115);fill-rule:nonzero;"/>
        </g>
        <g transform="matrix(50,0,0,50,4890.47,2534.3)">
            <path d="M0.332,-0.423C0.332,-0.416 0.331,-0.41 0.331,-0.405C0.331,-0.4 0.33,-0.396 0.329,-0.393C0.328,-0.391 0.327,-0.388 0.325,-0.387C0.324,-0.385 0.322,-0.385 0.319,-0.385C0.317,-0.385 0.314,-0.385 0.31,-0.387C0.306,-0.388 0.302,-0.39 0.297,-0.391C0.292,-0.393 0.287,-0.394 0.281,-0.396C0.275,-0.397 0.269,-0.397 0.262,-0.397C0.254,-0.397 0.246,-0.396 0.238,-0.393C0.23,-0.389 0.222,-0.384 0.214,-0.376C0.205,-0.369 0.196,-0.359 0.187,-0.347C0.177,-0.334 0.167,-0.319 0.155,-0.301L0.155,-0.012C0.155,-0.01 0.155,-0.007 0.153,-0.006C0.152,-0.004 0.15,-0.002 0.147,-0.001C0.144,0 0.14,0.001 0.135,0.002C0.13,0.003 0.123,0.003 0.115,0.003C0.107,0.003 0.1,0.003 0.095,0.002C0.09,0.001 0.086,0 0.083,-0.001C0.08,-0.002 0.078,-0.004 0.076,-0.006C0.075,-0.007 0.075,-0.01 0.075,-0.012L0.075,-0.452C0.075,-0.454 0.075,-0.456 0.076,-0.458C0.077,-0.46 0.079,-0.462 0.082,-0.463C0.085,-0.465 0.089,-0.466 0.093,-0.466C0.098,-0.467 0.104,-0.467 0.111,-0.467C0.118,-0.467 0.124,-0.467 0.129,-0.466C0.134,-0.466 0.138,-0.465 0.14,-0.463C0.143,-0.462 0.145,-0.46 0.146,-0.458C0.147,-0.456 0.147,-0.454 0.147,-0.452L0.147,-0.388C0.16,-0.405 0.171,-0.42 0.181,-0.431C0.192,-0.442 0.202,-0.45 0.211,-0.457C0.221,-0.463 0.23,-0.468 0.24,-0.47C0.249,-0.472 0.258,-0.474 0.268,-0.474C0.272,-0.474 0.277,-0.473 0.282,-0.473C0.287,-0.472 0.293,-0.472 0.299,-0.47C0.305,-0.469 0.31,-0.467 0.315,-0.466C0.319,-0.464 0.323,-0.463 0.325,-0.461C0.327,-0.459 0.328,-0.458 0.329,-0.456C0.329,-0.455 0.33,-0.453 0.33,-0.451C0.331,-0.448 0.331,-0.445 0.331,-0.441C0.331,-0.436 0.332,-0.43 0.332,-0.423Z" style="fill:rgb(20,35,115);fill-rule:nonzero;"/>
        </g>
        <g transform="matrix(50,0,0,50,4908.9,2534.3)">
            <path d="M0.406,-0.012C0.406,-0.008 0.404,-0.005 0.402,-0.003C0.399,-0.001 0.396,0 0.391,0.001C0.387,0.002 0.38,0.003 0.371,0.003C0.363,0.003 0.356,0.002 0.351,0.001C0.346,0 0.342,-0.001 0.34,-0.003C0.338,-0.005 0.336,-0.008 0.336,-0.012L0.336,-0.056C0.317,-0.035 0.296,-0.019 0.272,-0.008C0.249,0.004 0.224,0.009 0.197,0.009C0.174,0.009 0.153,0.006 0.135,0C0.116,-0.006 0.1,-0.014 0.087,-0.026C0.073,-0.037 0.063,-0.051 0.056,-0.068C0.049,-0.084 0.045,-0.103 0.045,-0.125C0.045,-0.149 0.05,-0.171 0.06,-0.189C0.07,-0.207 0.085,-0.222 0.104,-0.234C0.122,-0.246 0.146,-0.255 0.173,-0.261C0.2,-0.267 0.231,-0.271 0.265,-0.271L0.326,-0.271L0.326,-0.305C0.326,-0.322 0.324,-0.337 0.32,-0.35C0.317,-0.363 0.311,-0.373 0.303,-0.382C0.295,-0.391 0.285,-0.397 0.272,-0.402C0.259,-0.406 0.244,-0.408 0.225,-0.408C0.205,-0.408 0.187,-0.406 0.172,-0.401C0.156,-0.396 0.142,-0.391 0.13,-0.385C0.118,-0.38 0.108,-0.375 0.1,-0.37C0.092,-0.365 0.086,-0.363 0.083,-0.363C0.08,-0.363 0.078,-0.363 0.076,-0.365C0.074,-0.366 0.072,-0.368 0.071,-0.371C0.069,-0.373 0.068,-0.377 0.067,-0.381C0.067,-0.385 0.066,-0.389 0.066,-0.394C0.066,-0.402 0.067,-0.409 0.068,-0.413C0.069,-0.418 0.072,-0.423 0.076,-0.427C0.081,-0.431 0.088,-0.436 0.099,-0.442C0.11,-0.447 0.122,-0.453 0.136,-0.457C0.15,-0.462 0.166,-0.466 0.182,-0.469C0.199,-0.472 0.215,-0.474 0.232,-0.474C0.264,-0.474 0.291,-0.47 0.313,-0.463C0.335,-0.456 0.353,-0.445 0.367,-0.431C0.38,-0.418 0.39,-0.4 0.396,-0.38C0.403,-0.359 0.406,-0.335 0.406,-0.308L0.406,-0.012ZM0.326,-0.212L0.257,-0.212C0.235,-0.212 0.215,-0.211 0.199,-0.207C0.183,-0.203 0.169,-0.198 0.159,-0.19C0.148,-0.183 0.14,-0.174 0.135,-0.164C0.13,-0.154 0.127,-0.142 0.127,-0.128C0.127,-0.106 0.135,-0.087 0.149,-0.074C0.164,-0.06 0.184,-0.054 0.21,-0.054C0.231,-0.054 0.251,-0.059 0.269,-0.07C0.287,-0.081 0.306,-0.097 0.326,-0.119L0.326,-0.212Z" style="fill:rgb(20,35,115);fill-rule:nonzero;"/>
        </g>
        <g transform="matrix(50,0,0,50,4933.85,2534.3)">
            <path d="M0.457,-0.464C0.467,-0.464 0.473,-0.462 0.477,-0.458C0.481,-0.453 0.482,-0.447 0.482,-0.438L0.482,-0.012C0.482,-0.01 0.482,-0.007 0.48,-0.006C0.479,-0.004 0.477,-0.002 0.474,-0.001C0.471,0 0.467,0.001 0.461,0.002C0.456,0.003 0.45,0.003 0.442,0.003C0.434,0.003 0.428,0.003 0.422,0.002C0.417,0.001 0.413,0 0.41,-0.001C0.407,-0.002 0.405,-0.004 0.403,-0.006C0.402,-0.007 0.401,-0.01 0.401,-0.012L0.401,-0.397L0.174,-0.397L0.174,-0.152C0.174,-0.122 0.179,-0.099 0.188,-0.084C0.197,-0.068 0.213,-0.061 0.236,-0.061C0.243,-0.061 0.25,-0.061 0.256,-0.063C0.262,-0.064 0.267,-0.066 0.271,-0.067C0.276,-0.069 0.28,-0.071 0.283,-0.072C0.286,-0.073 0.289,-0.074 0.292,-0.074C0.294,-0.074 0.295,-0.074 0.297,-0.073C0.298,-0.072 0.299,-0.071 0.3,-0.068C0.301,-0.066 0.302,-0.063 0.302,-0.059C0.303,-0.055 0.303,-0.05 0.303,-0.044C0.303,-0.035 0.303,-0.028 0.301,-0.022C0.3,-0.017 0.298,-0.013 0.295,-0.01C0.293,-0.007 0.289,-0.005 0.284,-0.002C0.278,-0 0.273,0.002 0.266,0.003C0.259,0.005 0.252,0.006 0.245,0.007C0.237,0.008 0.23,0.008 0.222,0.008C0.199,0.008 0.18,0.005 0.164,-0.001C0.147,-0.007 0.134,-0.016 0.124,-0.028C0.113,-0.04 0.106,-0.056 0.101,-0.074C0.096,-0.093 0.094,-0.115 0.094,-0.141L0.094,-0.397L0.032,-0.397C0.027,-0.397 0.023,-0.4 0.021,-0.405C0.018,-0.41 0.016,-0.419 0.016,-0.431C0.016,-0.437 0.017,-0.442 0.017,-0.446C0.018,-0.451 0.019,-0.454 0.021,-0.457C0.022,-0.46 0.024,-0.462 0.026,-0.463C0.028,-0.464 0.03,-0.464 0.033,-0.464L0.094,-0.464L0.094,-0.569C0.094,-0.571 0.094,-0.573 0.095,-0.575C0.097,-0.577 0.099,-0.579 0.102,-0.58C0.105,-0.582 0.109,-0.583 0.114,-0.583C0.119,-0.584 0.126,-0.584 0.134,-0.584C0.142,-0.584 0.149,-0.584 0.154,-0.583C0.159,-0.583 0.163,-0.582 0.166,-0.58C0.169,-0.579 0.171,-0.577 0.172,-0.575C0.174,-0.573 0.174,-0.571 0.174,-0.569L0.174,-0.464L0.457,-0.464ZM0.492,-0.6C0.492,-0.581 0.488,-0.568 0.481,-0.562C0.474,-0.555 0.461,-0.551 0.441,-0.551C0.423,-0.551 0.41,-0.555 0.403,-0.561C0.396,-0.568 0.392,-0.581 0.392,-0.599C0.392,-0.618 0.396,-0.631 0.403,-0.638C0.41,-0.645 0.423,-0.648 0.442,-0.648C0.461,-0.648 0.474,-0.645 0.481,-0.638C0.488,-0.631 0.492,-0.619 0.492,-0.6ZM0.327,-0.464" style="fill:rgb(20,35,115);fill-rule:nonzero;"/>
        </g>
        <g transform="matrix(50,0,0,50,4962.71,2534.3)">
            <path d="M0.483,-0.237C0.483,-0.201 0.479,-0.168 0.469,-0.138C0.46,-0.108 0.446,-0.082 0.427,-0.06C0.408,-0.038 0.385,-0.021 0.357,-0.009C0.329,0.003 0.296,0.009 0.259,0.009C0.223,0.009 0.191,0.004 0.164,-0.007C0.137,-0.018 0.115,-0.033 0.097,-0.054C0.079,-0.074 0.066,-0.099 0.057,-0.128C0.048,-0.158 0.044,-0.191 0.044,-0.228C0.044,-0.264 0.049,-0.297 0.058,-0.327C0.067,-0.357 0.081,-0.383 0.1,-0.405C0.119,-0.427 0.142,-0.444 0.17,-0.456C0.198,-0.468 0.231,-0.474 0.268,-0.474C0.304,-0.474 0.336,-0.468 0.363,-0.458C0.389,-0.447 0.412,-0.431 0.43,-0.411C0.448,-0.39 0.461,-0.365 0.47,-0.336C0.479,-0.307 0.483,-0.274 0.483,-0.237ZM0.398,-0.231C0.398,-0.255 0.396,-0.278 0.392,-0.299C0.387,-0.32 0.38,-0.339 0.37,-0.354C0.36,-0.37 0.346,-0.383 0.329,-0.392C0.312,-0.402 0.29,-0.406 0.265,-0.406C0.241,-0.406 0.22,-0.402 0.203,-0.394C0.186,-0.385 0.172,-0.373 0.161,-0.358C0.15,-0.342 0.142,-0.324 0.136,-0.303C0.131,-0.282 0.128,-0.258 0.128,-0.233C0.128,-0.209 0.131,-0.187 0.135,-0.166C0.139,-0.144 0.147,-0.126 0.157,-0.11C0.167,-0.094 0.181,-0.082 0.198,-0.073C0.215,-0.063 0.237,-0.059 0.263,-0.059C0.286,-0.059 0.306,-0.063 0.324,-0.071C0.341,-0.08 0.355,-0.092 0.366,-0.107C0.377,-0.122 0.385,-0.14 0.391,-0.162C0.396,-0.183 0.398,-0.206 0.398,-0.231Z" style="fill:rgb(20,35,115);fill-rule:nonzero;"/>
        </g>
        <g transform="matrix(50,0,0,50,4990.07,2534.3)">
            <path d="M0.453,-0.012C0.453,-0.01 0.452,-0.007 0.451,-0.006C0.45,-0.004 0.448,-0.002 0.445,-0.001C0.442,0 0.438,0.001 0.433,0.002C0.427,0.003 0.421,0.003 0.413,0.003C0.405,0.003 0.398,0.003 0.393,0.002C0.388,0.001 0.384,0 0.381,-0.001C0.378,-0.002 0.376,-0.004 0.375,-0.006C0.373,-0.007 0.373,-0.01 0.373,-0.012L0.373,-0.27C0.373,-0.295 0.371,-0.315 0.367,-0.33C0.363,-0.345 0.357,-0.359 0.35,-0.37C0.342,-0.381 0.332,-0.389 0.321,-0.395C0.309,-0.401 0.295,-0.404 0.279,-0.404C0.259,-0.404 0.239,-0.397 0.219,-0.382C0.199,-0.368 0.177,-0.347 0.155,-0.319L0.155,-0.012C0.155,-0.01 0.155,-0.007 0.153,-0.006C0.152,-0.004 0.15,-0.002 0.147,-0.001C0.144,0 0.14,0.001 0.135,0.002C0.13,0.003 0.123,0.003 0.115,0.003C0.107,0.003 0.1,0.003 0.095,0.002C0.09,0.001 0.086,0 0.083,-0.001C0.08,-0.002 0.078,-0.004 0.076,-0.006C0.075,-0.007 0.075,-0.01 0.075,-0.012L0.075,-0.452C0.075,-0.454 0.075,-0.456 0.076,-0.458C0.077,-0.46 0.079,-0.462 0.082,-0.463C0.085,-0.465 0.089,-0.466 0.093,-0.466C0.098,-0.467 0.104,-0.467 0.111,-0.467C0.118,-0.467 0.124,-0.467 0.129,-0.466C0.134,-0.466 0.138,-0.465 0.14,-0.463C0.143,-0.462 0.145,-0.46 0.146,-0.458C0.147,-0.456 0.147,-0.454 0.147,-0.452L0.147,-0.394C0.172,-0.421 0.197,-0.441 0.221,-0.454C0.246,-0.467 0.271,-0.474 0.296,-0.474C0.325,-0.474 0.35,-0.469 0.37,-0.459C0.39,-0.449 0.406,-0.436 0.418,-0.419C0.431,-0.402 0.44,-0.383 0.445,-0.361C0.45,-0.338 0.453,-0.312 0.453,-0.28L0.453,-0.012Z" style="fill:rgb(20,35,115);fill-rule:nonzero;"/>
        </g>
    </g>
    <g transform="matrix(1,0,0,1,-383.634,-1061.24)">
        <path d="M596.194,2197.66C204.829,3001.43 597.85,3200.98 881.72,3217.47C1673.07,3218.24 2694.66,1779.67 1826.95,1393.54C2755.44,1655.88 1868.21,3363.31 856.272,3353.57C173.317,3318.88 366.781,2502.79 596.194,2197.66Z" style="fill:rgb(20,35,115);"/>
        <path d="M977.341,1717.25L977.341,3173.84C945.208,3178.25 913.281,3180.51 881.72,3180.47C821.812,3176.99 757.043,3165.36 695.797,3141.55L695.797,2026.16L980.97,1713.27L977.341,1717.25Z" style="fill:rgb(20,35,115);"/>
        <path d="M1424.88,2992.94C1334.62,3052.46 1241.13,3100.41 1147.6,3133.07L1147.6,1496.9L1429.87,1061.24L1424.88,2992.94Z" style="fill:rgb(20,35,115);"/>
        <path d="M1607.16,2847.59L1607.16,1986.8L1871.86,2234.04L1875.06,2558.68C1796.54,2663.22 1705.55,2761.52 1607.16,2847.59Z" style="fill:rgb(20,35,115);"/>
    </g>
    <g transform="matrix(1,0,0,1,-383.634,-1061.24)">
        <rect x="2451.83" y="1358.31" width="30.614" height="1669.72" style="fill:rgb(20,35,115);"/>
    </g>
    <g transform="matrix(0.960795,0,0,1,-279.391,-1061.24)">
        <rect x="2658.95" y="2437.61" width="1931.49" height="27.23" style="fill:rgb(20,35,115);"/>
    </g>
    <g transform="matrix(8.59945,0,0,8.59945,-20571.4,-17433.4)">
        <g transform="matrix(50,0,0,50,2650.22,2164.91)">
            <path d="M0.208,-0.122C0.208,-0.1 0.209,-0.084 0.21,-0.074C0.212,-0.064 0.214,-0.056 0.218,-0.05C0.221,-0.044 0.226,-0.04 0.233,-0.036C0.239,-0.032 0.25,-0.028 0.265,-0.024L0.265,-0L0.059,-0L0.059,-0.024C0.079,-0.029 0.093,-0.035 0.1,-0.041C0.106,-0.048 0.111,-0.057 0.113,-0.068C0.115,-0.08 0.116,-0.098 0.116,-0.122L0.116,-0.544C0.116,-0.567 0.115,-0.583 0.114,-0.594C0.112,-0.604 0.109,-0.612 0.106,-0.617C0.102,-0.623 0.097,-0.628 0.091,-0.631C0.085,-0.635 0.074,-0.638 0.059,-0.643L0.059,-0.667L0.265,-0.667L0.265,-0.643C0.251,-0.639 0.24,-0.635 0.234,-0.632C0.228,-0.628 0.223,-0.624 0.219,-0.618C0.215,-0.613 0.212,-0.605 0.211,-0.594C0.209,-0.583 0.208,-0.567 0.208,-0.544L0.208,-0.122Z" style="fill:rgb(20,35,115);fill-rule:nonzero;"/>
        </g>
        <g transform="matrix(50,0,0,50,2666.43,2164.91)">
            <path d="M0.523,-0L0.331,-0L0.331,-0.024C0.343,-0.028 0.352,-0.031 0.358,-0.034C0.363,-0.037 0.368,-0.041 0.372,-0.046C0.376,-0.052 0.378,-0.06 0.381,-0.071C0.383,-0.081 0.384,-0.098 0.384,-0.12L0.384,-0.248C0.384,-0.271 0.383,-0.292 0.382,-0.31C0.381,-0.329 0.378,-0.344 0.375,-0.356C0.372,-0.368 0.368,-0.377 0.364,-0.384C0.36,-0.39 0.354,-0.396 0.348,-0.401C0.342,-0.405 0.335,-0.409 0.328,-0.412C0.32,-0.415 0.31,-0.416 0.297,-0.416C0.284,-0.416 0.272,-0.413 0.261,-0.408C0.249,-0.403 0.237,-0.395 0.223,-0.382C0.209,-0.37 0.2,-0.358 0.193,-0.346C0.187,-0.334 0.184,-0.32 0.184,-0.304L0.184,-0.122C0.184,-0.094 0.185,-0.075 0.188,-0.064C0.191,-0.053 0.196,-0.045 0.203,-0.039C0.21,-0.033 0.222,-0.028 0.239,-0.024L0.239,-0L0.047,-0L0.047,-0.024C0.06,-0.028 0.069,-0.031 0.074,-0.034C0.08,-0.037 0.084,-0.041 0.088,-0.046C0.092,-0.052 0.095,-0.06 0.097,-0.07C0.099,-0.081 0.1,-0.098 0.1,-0.121L0.1,-0.333C0.1,-0.354 0.1,-0.371 0.099,-0.384C0.098,-0.396 0.096,-0.407 0.092,-0.414C0.088,-0.422 0.082,-0.428 0.074,-0.431C0.066,-0.435 0.055,-0.438 0.041,-0.441L0.041,-0.467L0.155,-0.471L0.185,-0.471L0.179,-0.392L0.186,-0.39C0.21,-0.414 0.23,-0.431 0.244,-0.442C0.259,-0.452 0.274,-0.46 0.289,-0.466C0.304,-0.472 0.32,-0.475 0.337,-0.475C0.355,-0.475 0.371,-0.473 0.385,-0.469C0.398,-0.464 0.411,-0.458 0.421,-0.45C0.432,-0.441 0.44,-0.431 0.447,-0.418C0.454,-0.406 0.459,-0.391 0.463,-0.373C0.466,-0.355 0.468,-0.333 0.468,-0.306L0.468,-0.122C0.468,-0.1 0.468,-0.083 0.47,-0.073C0.471,-0.063 0.473,-0.055 0.477,-0.05C0.48,-0.044 0.485,-0.04 0.491,-0.036C0.497,-0.032 0.508,-0.028 0.523,-0.024L0.523,-0Z" style="fill:rgb(20,35,115);fill-rule:nonzero;"/>
        </g>
        <g transform="matrix(50,0,0,50,2694.33,2164.91)">
            <path d="M0.377,-0.531C0.377,-0.562 0.377,-0.584 0.376,-0.596C0.376,-0.609 0.374,-0.619 0.372,-0.628C0.37,-0.636 0.367,-0.643 0.364,-0.648C0.36,-0.653 0.355,-0.657 0.348,-0.66C0.342,-0.663 0.331,-0.666 0.314,-0.668L0.314,-0.694L0.432,-0.699L0.461,-0.699L0.461,-0.133C0.461,-0.108 0.461,-0.09 0.462,-0.079C0.463,-0.068 0.465,-0.059 0.469,-0.053C0.472,-0.046 0.477,-0.041 0.484,-0.037C0.491,-0.033 0.503,-0.029 0.521,-0.025L0.521,-0L0.406,0.005L0.376,0.005L0.382,-0.075L0.375,-0.077C0.354,-0.055 0.337,-0.039 0.322,-0.028C0.306,-0.017 0.29,-0.008 0.273,-0.002C0.256,0.005 0.238,0.008 0.218,0.008C0.165,0.008 0.124,-0.012 0.095,-0.053C0.066,-0.094 0.051,-0.152 0.051,-0.229C0.051,-0.282 0.061,-0.327 0.08,-0.365C0.098,-0.402 0.124,-0.43 0.156,-0.448C0.188,-0.466 0.224,-0.475 0.264,-0.475C0.286,-0.475 0.305,-0.473 0.323,-0.47C0.34,-0.467 0.358,-0.461 0.377,-0.453L0.377,-0.531ZM0.377,-0.29C0.377,-0.315 0.376,-0.335 0.374,-0.351C0.371,-0.366 0.367,-0.379 0.362,-0.389C0.357,-0.4 0.349,-0.408 0.34,-0.416C0.331,-0.423 0.321,-0.428 0.31,-0.431C0.299,-0.434 0.286,-0.436 0.271,-0.436C0.229,-0.436 0.198,-0.419 0.176,-0.386C0.154,-0.353 0.143,-0.305 0.143,-0.242C0.143,-0.18 0.152,-0.132 0.17,-0.1C0.188,-0.067 0.215,-0.051 0.251,-0.051C0.266,-0.051 0.278,-0.052 0.287,-0.054C0.297,-0.057 0.306,-0.061 0.315,-0.066C0.324,-0.072 0.333,-0.079 0.343,-0.088C0.352,-0.098 0.359,-0.106 0.364,-0.114C0.368,-0.122 0.371,-0.131 0.374,-0.141C0.376,-0.151 0.377,-0.164 0.377,-0.18L0.377,-0.29Z" style="fill:rgb(20,35,115);fill-rule:nonzero;"/>
        </g>
        <g transform="matrix(50,0,0,50,2722.07,2164.91)">
            <path d="M0.187,-0.658L0.187,-0.563L0.097,-0.563L0.097,-0.658L0.187,-0.658ZM0.047,-0.024C0.06,-0.028 0.069,-0.031 0.074,-0.034C0.08,-0.037 0.084,-0.041 0.088,-0.046C0.092,-0.052 0.095,-0.06 0.097,-0.07C0.099,-0.081 0.1,-0.098 0.1,-0.121L0.1,-0.333C0.1,-0.354 0.1,-0.371 0.099,-0.384C0.098,-0.396 0.096,-0.407 0.092,-0.414C0.088,-0.422 0.082,-0.428 0.074,-0.431C0.066,-0.435 0.055,-0.438 0.041,-0.441L0.041,-0.467L0.154,-0.471L0.184,-0.471L0.184,-0.122C0.184,-0.094 0.185,-0.075 0.188,-0.064C0.191,-0.053 0.196,-0.045 0.203,-0.039C0.21,-0.033 0.222,-0.028 0.239,-0.024L0.239,-0L0.047,-0L0.047,-0.024Z" style="fill:rgb(20,35,115);fill-rule:nonzero;"/>
        </g>
        <g transform="matrix(50,0,0,50,2734.96,2164.91)">
            <path d="M0.208,-0.467L0.208,-0.443C0.194,-0.439 0.183,-0.436 0.177,-0.433C0.171,-0.429 0.166,-0.425 0.163,-0.42C0.16,-0.415 0.158,-0.408 0.158,-0.399C0.158,-0.39 0.159,-0.381 0.161,-0.371C0.163,-0.362 0.167,-0.351 0.171,-0.338L0.256,-0.091L0.356,-0.328C0.362,-0.343 0.367,-0.356 0.37,-0.366C0.372,-0.376 0.374,-0.386 0.374,-0.395C0.374,-0.408 0.37,-0.419 0.363,-0.426C0.355,-0.433 0.342,-0.439 0.322,-0.443L0.322,-0.467L0.505,-0.467L0.505,-0.443C0.492,-0.44 0.482,-0.436 0.476,-0.431C0.469,-0.426 0.462,-0.417 0.455,-0.406C0.448,-0.394 0.44,-0.378 0.431,-0.357L0.266,0.005L0.208,0.005L0.076,-0.36C0.067,-0.385 0.06,-0.402 0.054,-0.411C0.049,-0.421 0.043,-0.428 0.037,-0.432C0.031,-0.437 0.021,-0.44 0.009,-0.443L0.009,-0.467L0.208,-0.467Z" style="fill:rgb(20,35,115);fill-rule:nonzero;"/>
        </g>
        <g transform="matrix(50,0,0,50,2760.15,2164.91)">
            <path d="M0.187,-0.658L0.187,-0.563L0.097,-0.563L0.097,-0.658L0.187,-0.658ZM0.047,-0.024C0.06,-0.028 0.069,-0.031 0.074,-0.034C0.08,-0.037 0.084,-0.041 0.088,-0.046C0.092,-0.052 0.095,-0.06 0.097,-0.07C0.099,-0.081 0.1,-0.098 0.1,-0.121L0.1,-0.333C0.1,-0.354 0.1,-0.371 0.099,-0.384C0.098,-0.396 0.096,-0.407 0.092,-0.414C0.088,-0.422 0.082,-0.428 0.074,-0.431C0.066,-0.435 0.055,-0.438 0.041,-0.441L0.041,-0.467L0.154,-0.471L0.184,-0.471L0.184,-0.122C0.184,-0.094 0.185,-0.075 0.188,-0.064C0.191,-0.053 0.196,-0.045 0.203,-0.039C0.21,-0.033 0.222,-0.028 0.239,-0.024L0.239,-0L0.047,-0L0.047,-0.024Z" style="fill:rgb(20,35,115);fill-rule:nonzero;"/>
        </g>
        <g transform="matrix(50,0,0,50,2774.05,2164.91)">
            <path d="M0.377,-0.531C0.377,-0.562 0.377,-0.584 0.376,-0.596C0.376,-0.609 0.374,-0.619 0.372,-0.628C0.37,-0.636 0.367,-0.643 0.364,-0.648C0.36,-0.653 0.355,-0.657 0.348,-0.66C0.342,-0.663 0.331,-0.666 0.314,-0.668L0.314,-0.694L0.432,-0.699L0.461,-0.699L0.461,-0.133C0.461,-0.108 0.461,-0.09 0.462,-0.079C0.463,-0.068 0.465,-0.059 0.469,-0.053C0.472,-0.046 0.477,-0.041 0.484,-0.037C0.491,-0.033 0.503,-0.029 0.521,-0.025L0.521,-0L0.406,0.005L0.376,0.005L0.382,-0.075L0.375,-0.077C0.354,-0.055 0.337,-0.039 0.322,-0.028C0.306,-0.017 0.29,-0.008 0.273,-0.002C0.256,0.005 0.238,0.008 0.218,0.008C0.165,0.008 0.124,-0.012 0.095,-0.053C0.066,-0.094 0.051,-0.152 0.051,-0.229C0.051,-0.282 0.061,-0.327 0.08,-0.365C0.098,-0.402 0.124,-0.43 0.156,-0.448C0.188,-0.466 0.224,-0.475 0.264,-0.475C0.286,-0.475 0.305,-0.473 0.323,-0.47C0.34,-0.467 0.358,-0.461 0.377,-0.453L0.377,-0.531ZM0.377,-0.29C0.377,-0.315 0.376,-0.335 0.374,-0.351C0.371,-0.366 0.367,-0.379 0.362,-0.389C0.357,-0.4 0.349,-0.408 0.34,-0.416C0.331,-0.423 0.321,-0.428 0.31,-0.431C0.299,-0.434 0.286,-0.436 0.271,-0.436C0.229,-0.436 0.198,-0.419 0.176,-0.386C0.154,-0.353 0.143,-0.305 0.143,-0.242C0.143,-0.18 0.152,-0.132 0.17,-0.1C0.188,-0.067 0.215,-0.051 0.251,-0.051C0.266,-0.051 0.278,-0.052 0.287,-0.054C0.297,-0.057 0.306,-0.061 0.315,-0.066C0.324,-0.072 0.333,-0.079 0.343,-0.088C0.352,-0.098 0.359,-0.106 0.364,-0.114C0.368,-0.122 0.371,-0.131 0.374,-0.141C0.376,-0.151 0.377,-0.164 0.377,-0.18L0.377,-0.29Z" style="fill:rgb(20,35,115);fill-rule:nonzero;"/>
        </g>
        <g transform="matrix(50,0,0,50,2801.78,2164.91)">
            <path d="M0.036,-0.467L0.175,-0.467L0.175,-0.218C0.175,-0.18 0.176,-0.151 0.179,-0.131C0.182,-0.111 0.187,-0.097 0.192,-0.086C0.198,-0.076 0.207,-0.068 0.217,-0.061C0.228,-0.054 0.243,-0.051 0.262,-0.051C0.274,-0.051 0.286,-0.053 0.297,-0.058C0.309,-0.063 0.321,-0.072 0.335,-0.084C0.349,-0.096 0.359,-0.108 0.365,-0.12C0.372,-0.132 0.375,-0.146 0.375,-0.162L0.375,-0.345C0.375,-0.364 0.374,-0.378 0.373,-0.387C0.372,-0.397 0.37,-0.404 0.368,-0.41C0.366,-0.416 0.363,-0.42 0.36,-0.424C0.357,-0.427 0.353,-0.431 0.347,-0.434C0.341,-0.437 0.332,-0.44 0.319,-0.443L0.319,-0.467L0.458,-0.467L0.458,-0.133C0.458,-0.108 0.459,-0.09 0.46,-0.079C0.461,-0.068 0.463,-0.059 0.466,-0.053C0.47,-0.046 0.475,-0.041 0.481,-0.037C0.488,-0.033 0.5,-0.029 0.518,-0.025L0.518,-0L0.406,0.005L0.376,0.005L0.379,-0.075L0.372,-0.077C0.345,-0.048 0.319,-0.026 0.295,-0.013C0.27,0.001 0.245,0.008 0.221,0.008C0.191,0.008 0.167,0.002 0.147,-0.01C0.128,-0.021 0.114,-0.039 0.104,-0.062C0.095,-0.086 0.09,-0.118 0.09,-0.161L0.09,-0.345C0.09,-0.373 0.089,-0.391 0.087,-0.402C0.085,-0.412 0.081,-0.42 0.075,-0.426C0.069,-0.432 0.056,-0.438 0.036,-0.443L0.036,-0.467Z" style="fill:rgb(20,35,115);fill-rule:nonzero;"/>
        </g>
        <g transform="matrix(50,0,0,50,2829.39,2164.91)">
            <path d="M0.33,-0.07L0.322,-0.072C0.294,-0.043 0.267,-0.022 0.242,-0.01C0.218,0.002 0.191,0.008 0.163,0.008C0.138,0.008 0.117,0.003 0.098,-0.007C0.079,-0.016 0.064,-0.03 0.054,-0.047C0.044,-0.065 0.039,-0.085 0.039,-0.107C0.039,-0.155 0.063,-0.192 0.11,-0.218C0.157,-0.243 0.227,-0.258 0.321,-0.263L0.321,-0.294C0.321,-0.328 0.318,-0.355 0.312,-0.375C0.305,-0.394 0.295,-0.408 0.281,-0.417C0.267,-0.427 0.248,-0.431 0.225,-0.431C0.199,-0.431 0.179,-0.424 0.163,-0.411C0.148,-0.398 0.136,-0.378 0.128,-0.351L0.064,-0.351L0.064,-0.415C0.096,-0.431 0.122,-0.443 0.143,-0.45C0.163,-0.458 0.184,-0.464 0.205,-0.469C0.226,-0.473 0.247,-0.475 0.269,-0.475C0.301,-0.475 0.327,-0.47 0.346,-0.46C0.366,-0.449 0.38,-0.434 0.39,-0.413C0.4,-0.391 0.405,-0.36 0.405,-0.317L0.405,-0.147C0.405,-0.123 0.405,-0.106 0.405,-0.096C0.406,-0.086 0.407,-0.077 0.408,-0.068C0.41,-0.06 0.412,-0.053 0.416,-0.048C0.419,-0.043 0.424,-0.039 0.43,-0.035C0.436,-0.032 0.447,-0.028 0.461,-0.024L0.461,-0L0.327,-0L0.33,-0.07ZM0.321,-0.223C0.255,-0.222 0.206,-0.213 0.173,-0.196C0.14,-0.179 0.124,-0.154 0.124,-0.12C0.124,-0.101 0.127,-0.086 0.135,-0.076C0.142,-0.065 0.152,-0.058 0.163,-0.053C0.174,-0.049 0.188,-0.047 0.204,-0.047C0.226,-0.047 0.246,-0.053 0.264,-0.063C0.282,-0.074 0.296,-0.088 0.306,-0.104C0.316,-0.121 0.321,-0.138 0.321,-0.154L0.321,-0.223Z" style="fill:rgb(20,35,115);fill-rule:nonzero;"/>
        </g>
        <g transform="matrix(50,0,0,50,2853.81,2164.91)">
            <path d="M0.178,-0.122C0.178,-0.094 0.179,-0.075 0.182,-0.064C0.184,-0.053 0.189,-0.045 0.197,-0.039C0.204,-0.033 0.216,-0.028 0.232,-0.024L0.232,-0L0.039,-0L0.039,-0.024C0.055,-0.028 0.066,-0.033 0.073,-0.037C0.079,-0.042 0.083,-0.047 0.086,-0.053C0.089,-0.06 0.091,-0.068 0.092,-0.079C0.093,-0.09 0.094,-0.104 0.094,-0.122L0.094,-0.531C0.094,-0.562 0.094,-0.584 0.093,-0.596C0.093,-0.609 0.091,-0.619 0.089,-0.628C0.087,-0.636 0.084,-0.643 0.08,-0.648C0.077,-0.653 0.072,-0.657 0.065,-0.66C0.059,-0.663 0.047,-0.666 0.031,-0.668L0.031,-0.694L0.148,-0.699L0.178,-0.699L0.178,-0.122Z" style="fill:rgb(20,35,115);fill-rule:nonzero;"/>
        </g>
        <g transform="matrix(50,0,0,50,2878.39,2164.91)">
            <path d="M0.032,-0.667L0.561,-0.667L0.561,-0.497L0.513,-0.497C0.506,-0.525 0.498,-0.547 0.491,-0.563C0.484,-0.579 0.477,-0.592 0.469,-0.6C0.461,-0.609 0.453,-0.615 0.444,-0.618C0.435,-0.622 0.422,-0.624 0.404,-0.624L0.342,-0.624L0.342,-0.124C0.342,-0.104 0.343,-0.089 0.345,-0.078C0.347,-0.066 0.35,-0.057 0.355,-0.051C0.359,-0.044 0.365,-0.039 0.373,-0.035C0.38,-0.031 0.392,-0.028 0.408,-0.024L0.408,-0L0.185,-0L0.185,-0.024C0.194,-0.026 0.203,-0.029 0.21,-0.031C0.218,-0.034 0.224,-0.037 0.229,-0.041C0.233,-0.045 0.237,-0.049 0.24,-0.055C0.244,-0.061 0.246,-0.069 0.248,-0.079C0.25,-0.089 0.25,-0.104 0.25,-0.124L0.25,-0.624L0.189,-0.624C0.174,-0.624 0.161,-0.622 0.151,-0.619C0.141,-0.616 0.132,-0.61 0.124,-0.601C0.115,-0.592 0.107,-0.578 0.1,-0.561C0.093,-0.544 0.087,-0.523 0.081,-0.497L0.032,-0.497L0.032,-0.667Z" style="fill:rgb(20,35,115);fill-rule:nonzero;"/>
        </g>
        <g transform="matrix(50,0,0,50,2904.12,2164.91)">
            <path d="M0.33,-0.07L0.322,-0.072C0.294,-0.043 0.267,-0.022 0.242,-0.01C0.218,0.002 0.191,0.008 0.163,0.008C0.138,0.008 0.117,0.003 0.098,-0.007C0.079,-0.016 0.064,-0.03 0.054,-0.047C0.044,-0.065 0.039,-0.085 0.039,-0.107C0.039,-0.155 0.063,-0.192 0.11,-0.218C0.157,-0.243 0.227,-0.258 0.321,-0.263L0.321,-0.294C0.321,-0.328 0.318,-0.355 0.312,-0.375C0.305,-0.394 0.295,-0.408 0.281,-0.417C0.267,-0.427 0.248,-0.431 0.225,-0.431C0.199,-0.431 0.179,-0.424 0.163,-0.411C0.148,-0.398 0.136,-0.378 0.128,-0.351L0.064,-0.351L0.064,-0.415C0.096,-0.431 0.122,-0.443 0.143,-0.45C0.163,-0.458 0.184,-0.464 0.205,-0.469C0.226,-0.473 0.247,-0.475 0.269,-0.475C0.301,-0.475 0.327,-0.47 0.346,-0.46C0.366,-0.449 0.38,-0.434 0.39,-0.413C0.4,-0.391 0.405,-0.36 0.405,-0.317L0.405,-0.147C0.405,-0.123 0.405,-0.106 0.405,-0.096C0.406,-0.086 0.407,-0.077 0.408,-0.068C0.41,-0.06 0.412,-0.053 0.416,-0.048C0.419,-0.043 0.424,-0.039 0.43,-0.035C0.436,-0.032 0.447,-0.028 0.461,-0.024L0.461,-0L0.327,-0L0.33,-0.07ZM0.321,-0.223C0.255,-0.222 0.206,-0.213 0.173,-0.196C0.14,-0.179 0.124,-0.154 0.124,-0.12C0.124,-0.101 0.127,-0.086 0.135,-0.076C0.142,-0.065 0.152,-0.058 0.163,-0.053C0.174,-0.049 0.188,-0.047 0.204,-0.047C0.226,-0.047 0.246,-0.053 0.264,-0.063C0.282,-0.074 0.296,-0.088 0.306,-0.104C0.316,-0.121 0.321,-0.138 0.321,-0.154L0.321,-0.223Z" style="fill:rgb(20,35,115);fill-rule:nonzero;"/>
        </g>
        <g transform="matrix(50,0,0,50,2928.54,2164.91)">
            <path d="M0.254,-0.282L0.317,-0.362C0.324,-0.371 0.33,-0.38 0.334,-0.388C0.338,-0.396 0.34,-0.405 0.34,-0.414C0.34,-0.421 0.338,-0.427 0.332,-0.432C0.326,-0.437 0.318,-0.441 0.306,-0.443L0.306,-0.467L0.466,-0.467L0.466,-0.443C0.453,-0.439 0.441,-0.432 0.428,-0.422C0.415,-0.411 0.399,-0.395 0.381,-0.372L0.28,-0.248L0.391,-0.098C0.407,-0.076 0.421,-0.06 0.434,-0.048C0.447,-0.037 0.459,-0.029 0.472,-0.024L0.472,-0L0.276,-0L0.276,-0.024C0.303,-0.027 0.316,-0.037 0.316,-0.054C0.316,-0.061 0.315,-0.068 0.313,-0.074C0.311,-0.08 0.306,-0.087 0.3,-0.095L0.229,-0.194L0.154,-0.096C0.149,-0.089 0.144,-0.082 0.141,-0.076C0.138,-0.07 0.137,-0.064 0.137,-0.056C0.137,-0.047 0.14,-0.04 0.146,-0.034C0.152,-0.029 0.161,-0.025 0.174,-0.024L0.174,-0L0.011,-0L0.011,-0.024C0.022,-0.028 0.032,-0.033 0.04,-0.039C0.049,-0.044 0.058,-0.052 0.067,-0.061C0.076,-0.071 0.087,-0.084 0.102,-0.102L0.204,-0.228L0.1,-0.371C0.085,-0.39 0.074,-0.404 0.065,-0.413C0.057,-0.422 0.049,-0.429 0.042,-0.433C0.035,-0.438 0.028,-0.441 0.021,-0.443L0.021,-0.467L0.212,-0.467L0.212,-0.443C0.186,-0.439 0.173,-0.429 0.173,-0.413C0.173,-0.405 0.175,-0.398 0.178,-0.39C0.182,-0.383 0.187,-0.374 0.194,-0.365L0.254,-0.282Z" style="fill:rgb(20,35,115);fill-rule:nonzero;"/>
        </g>
        <g transform="matrix(50,0,0,50,2952.22,2164.91)">
            <path d="M0.375,-0.36L0.328,-0.36C0.32,-0.379 0.312,-0.395 0.302,-0.406C0.292,-0.417 0.281,-0.425 0.269,-0.43C0.257,-0.434 0.242,-0.437 0.224,-0.437C0.198,-0.437 0.177,-0.43 0.161,-0.418C0.146,-0.406 0.138,-0.389 0.138,-0.368C0.138,-0.353 0.141,-0.341 0.147,-0.331C0.154,-0.321 0.163,-0.312 0.176,-0.304C0.189,-0.295 0.212,-0.284 0.245,-0.27C0.278,-0.256 0.304,-0.243 0.322,-0.23C0.34,-0.218 0.354,-0.204 0.365,-0.188C0.375,-0.173 0.38,-0.153 0.38,-0.131C0.38,-0.106 0.375,-0.084 0.367,-0.066C0.358,-0.049 0.346,-0.035 0.33,-0.023C0.314,-0.012 0.295,-0.004 0.273,0C0.251,0.005 0.227,0.008 0.201,0.008C0.173,0.008 0.147,0.006 0.121,0.002C0.095,-0.002 0.07,-0.008 0.046,-0.014L0.046,-0.116L0.094,-0.116C0.103,-0.086 0.116,-0.065 0.133,-0.051C0.15,-0.038 0.174,-0.031 0.204,-0.031C0.216,-0.031 0.227,-0.032 0.239,-0.034C0.25,-0.037 0.26,-0.041 0.269,-0.047C0.277,-0.052 0.284,-0.06 0.29,-0.07C0.295,-0.08 0.297,-0.092 0.297,-0.106C0.297,-0.123 0.294,-0.137 0.288,-0.147C0.281,-0.157 0.271,-0.167 0.257,-0.176C0.244,-0.184 0.22,-0.196 0.185,-0.21C0.155,-0.223 0.132,-0.235 0.114,-0.247C0.096,-0.258 0.082,-0.272 0.072,-0.288C0.061,-0.304 0.056,-0.323 0.056,-0.345C0.056,-0.371 0.063,-0.395 0.078,-0.414C0.092,-0.434 0.113,-0.449 0.141,-0.459C0.168,-0.47 0.2,-0.475 0.237,-0.475C0.258,-0.475 0.279,-0.474 0.299,-0.472C0.319,-0.47 0.344,-0.466 0.375,-0.459L0.375,-0.36Z" style="fill:rgb(20,35,115);fill-rule:nonzero;"/>
        </g>
        <g transform="matrix(50,0,0,50,2973.7,2164.91)">
            <path d="M0.438,-0.083C0.417,-0.061 0.398,-0.044 0.38,-0.032C0.363,-0.019 0.344,-0.01 0.323,-0.003C0.302,0.004 0.279,0.008 0.254,0.008C0.187,0.008 0.136,-0.012 0.102,-0.052C0.068,-0.093 0.051,-0.152 0.051,-0.23C0.051,-0.279 0.059,-0.322 0.077,-0.359C0.094,-0.396 0.119,-0.425 0.151,-0.445C0.184,-0.465 0.221,-0.475 0.263,-0.475C0.296,-0.475 0.324,-0.47 0.347,-0.459C0.37,-0.449 0.388,-0.435 0.402,-0.417C0.416,-0.399 0.427,-0.376 0.434,-0.348C0.442,-0.321 0.446,-0.285 0.447,-0.241L0.14,-0.241L0.14,-0.232C0.14,-0.194 0.144,-0.161 0.153,-0.135C0.161,-0.109 0.175,-0.088 0.195,-0.073C0.215,-0.059 0.24,-0.051 0.272,-0.051C0.299,-0.051 0.323,-0.056 0.344,-0.066C0.365,-0.076 0.387,-0.092 0.408,-0.115L0.438,-0.083ZM0.355,-0.281C0.354,-0.316 0.349,-0.345 0.342,-0.367C0.335,-0.39 0.325,-0.407 0.312,-0.419C0.298,-0.431 0.28,-0.437 0.258,-0.437C0.224,-0.437 0.198,-0.423 0.177,-0.396C0.157,-0.369 0.146,-0.331 0.142,-0.281L0.355,-0.281Z" style="fill:rgb(20,35,115);fill-rule:nonzero;"/>
        </g>
        <g transform="matrix(50,0,0,50,2998.09,2164.91)">
            <path d="M0.179,-0.386L0.186,-0.384C0.204,-0.406 0.221,-0.423 0.236,-0.436C0.251,-0.448 0.268,-0.458 0.285,-0.465C0.303,-0.472 0.323,-0.475 0.346,-0.475C0.365,-0.475 0.382,-0.474 0.397,-0.472L0.397,-0.36L0.342,-0.36C0.334,-0.377 0.326,-0.39 0.317,-0.398C0.308,-0.406 0.296,-0.41 0.281,-0.41C0.269,-0.41 0.257,-0.407 0.246,-0.4C0.234,-0.393 0.223,-0.383 0.212,-0.37C0.202,-0.357 0.194,-0.345 0.19,-0.333C0.186,-0.322 0.184,-0.309 0.184,-0.293L0.184,-0.122C0.184,-0.092 0.186,-0.072 0.189,-0.061C0.193,-0.05 0.199,-0.041 0.207,-0.036C0.216,-0.031 0.228,-0.027 0.245,-0.024L0.245,-0L0.048,-0L0.048,-0.024C0.06,-0.028 0.069,-0.031 0.074,-0.034C0.08,-0.037 0.084,-0.041 0.088,-0.046C0.092,-0.052 0.095,-0.06 0.097,-0.07C0.099,-0.081 0.1,-0.098 0.1,-0.121L0.1,-0.333C0.1,-0.354 0.1,-0.371 0.099,-0.384C0.098,-0.396 0.096,-0.407 0.092,-0.414C0.088,-0.422 0.082,-0.428 0.074,-0.431C0.066,-0.435 0.055,-0.438 0.041,-0.441L0.041,-0.466L0.155,-0.471L0.185,-0.471L0.179,-0.386Z" style="fill:rgb(20,35,115);fill-rule:nonzero;"/>
        </g>
        <g transform="matrix(50,0,0,50,3018.77,2164.91)">
            <path d="M0.208,-0.467L0.208,-0.443C0.194,-0.439 0.183,-0.436 0.177,-0.433C0.171,-0.429 0.166,-0.425 0.163,-0.42C0.16,-0.415 0.158,-0.408 0.158,-0.399C0.158,-0.39 0.159,-0.381 0.161,-0.371C0.163,-0.362 0.167,-0.351 0.171,-0.338L0.256,-0.091L0.356,-0.328C0.362,-0.343 0.367,-0.356 0.37,-0.366C0.372,-0.376 0.374,-0.386 0.374,-0.395C0.374,-0.408 0.37,-0.419 0.363,-0.426C0.355,-0.433 0.342,-0.439 0.322,-0.443L0.322,-0.467L0.505,-0.467L0.505,-0.443C0.492,-0.44 0.482,-0.436 0.476,-0.431C0.469,-0.426 0.462,-0.417 0.455,-0.406C0.448,-0.394 0.44,-0.378 0.431,-0.357L0.266,0.005L0.208,0.005L0.076,-0.36C0.067,-0.385 0.06,-0.402 0.054,-0.411C0.049,-0.421 0.043,-0.428 0.037,-0.432C0.031,-0.437 0.021,-0.44 0.009,-0.443L0.009,-0.467L0.208,-0.467Z" style="fill:rgb(20,35,115);fill-rule:nonzero;"/>
        </g>
        <g transform="matrix(50,0,0,50,3043.97,2164.91)">
            <path d="M0.187,-0.658L0.187,-0.563L0.097,-0.563L0.097,-0.658L0.187,-0.658ZM0.047,-0.024C0.06,-0.028 0.069,-0.031 0.074,-0.034C0.08,-0.037 0.084,-0.041 0.088,-0.046C0.092,-0.052 0.095,-0.06 0.097,-0.07C0.099,-0.081 0.1,-0.098 0.1,-0.121L0.1,-0.333C0.1,-0.354 0.1,-0.371 0.099,-0.384C0.098,-0.396 0.096,-0.407 0.092,-0.414C0.088,-0.422 0.082,-0.428 0.074,-0.431C0.066,-0.435 0.055,-0.438 0.041,-0.441L0.041,-0.467L0.154,-0.471L0.184,-0.471L0.184,-0.122C0.184,-0.094 0.185,-0.075 0.188,-0.064C0.191,-0.053 0.196,-0.045 0.203,-0.039C0.21,-0.033 0.222,-0.028 0.239,-0.024L0.239,-0L0.047,-0L0.047,-0.024Z" style="fill:rgb(20,35,115);fill-rule:nonzero;"/>
        </g>
        <g transform="matrix(50,0,0,50,3057.86,2164.91)">
            <path d="M0.411,-0.456L0.411,-0.354L0.349,-0.354C0.344,-0.375 0.337,-0.391 0.329,-0.404C0.32,-0.416 0.311,-0.424 0.3,-0.429C0.29,-0.434 0.276,-0.437 0.26,-0.437C0.237,-0.437 0.217,-0.429 0.2,-0.415C0.182,-0.4 0.168,-0.378 0.158,-0.348C0.148,-0.318 0.143,-0.281 0.143,-0.238C0.143,-0.21 0.145,-0.185 0.148,-0.162C0.152,-0.139 0.159,-0.119 0.168,-0.103C0.178,-0.087 0.19,-0.074 0.206,-0.065C0.222,-0.056 0.241,-0.051 0.264,-0.051C0.287,-0.051 0.308,-0.056 0.327,-0.064C0.346,-0.073 0.366,-0.089 0.387,-0.111L0.415,-0.079C0.398,-0.06 0.384,-0.046 0.371,-0.036C0.358,-0.026 0.345,-0.018 0.33,-0.011C0.316,-0.005 0.302,0 0.287,0.003C0.273,0.006 0.258,0.008 0.241,0.008C0.18,0.008 0.133,-0.013 0.1,-0.053C0.068,-0.094 0.051,-0.153 0.051,-0.23C0.051,-0.279 0.06,-0.321 0.079,-0.359C0.097,-0.396 0.122,-0.425 0.155,-0.445C0.188,-0.465 0.226,-0.475 0.269,-0.475C0.296,-0.475 0.32,-0.474 0.343,-0.47C0.366,-0.467 0.388,-0.462 0.411,-0.456Z" style="fill:rgb(20,35,115);fill-rule:nonzero;"/>
        </g>
        <g transform="matrix(50,0,0,50,3079.9,2164.91)">
            <path d="M0.438,-0.083C0.417,-0.061 0.398,-0.044 0.38,-0.032C0.363,-0.019 0.344,-0.01 0.323,-0.003C0.302,0.004 0.279,0.008 0.254,0.008C0.187,0.008 0.136,-0.012 0.102,-0.052C0.068,-0.093 0.051,-0.152 0.051,-0.23C0.051,-0.279 0.059,-0.322 0.077,-0.359C0.094,-0.396 0.119,-0.425 0.151,-0.445C0.184,-0.465 0.221,-0.475 0.263,-0.475C0.296,-0.475 0.324,-0.47 0.347,-0.459C0.37,-0.449 0.388,-0.435 0.402,-0.417C0.416,-0.399 0.427,-0.376 0.434,-0.348C0.442,-0.321 0.446,-0.285 0.447,-0.241L0.14,-0.241L0.14,-0.232C0.14,-0.194 0.144,-0.161 0.153,-0.135C0.161,-0.109 0.175,-0.088 0.195,-0.073C0.215,-0.059 0.24,-0.051 0.272,-0.051C0.299,-0.051 0.323,-0.056 0.344,-0.066C0.365,-0.076 0.387,-0.092 0.408,-0.115L0.438,-0.083ZM0.355,-0.281C0.354,-0.316 0.349,-0.345 0.342,-0.367C0.335,-0.39 0.325,-0.407 0.312,-0.419C0.298,-0.431 0.28,-0.437 0.258,-0.437C0.224,-0.437 0.198,-0.423 0.177,-0.396C0.157,-0.369 0.146,-0.331 0.142,-0.281L0.355,-0.281Z" style="fill:rgb(20,35,115);fill-rule:nonzero;"/>
        </g>
    </g>
</svg>
