<?xml version="1.0" encoding="utf-8"?>
<!-- Generator: Adobe Illustrator 27.0.0, SVG Export Plug-In . SVG Version: 6.00 Build 0)  -->
<svg version="1.1" id="Layer_1" xmlns="http://www.w3.org/2000/svg" xmlns:xlink="http://www.w3.org/1999/xlink" x="0px" y="0px"
	 viewBox="0 0 1200 1200" style="enable-background:new 0 0 1200 1200;" xml:space="preserve">
<style type="text/css">
	.st0{fill:#828FE3;}
</style>
<path class="st0" d="M758.2,403.3L643.3,168c-5-10.2-12.8-17.6-21.7-21.9c-6.9-3.3-14.3-5.1-21.6-5.1c-7.3,0-14.8,1.6-21.6,4.9
	c-8.8,4.3-16.6,11.6-21.6,22L441.9,403.3c-4,8.1-11.8,14.2-21.5,15.6l-258.9,36.5c-11.4,1.5-20.8,6.7-27.7,13.8
	c-5.1,5.3-9,11.8-11.3,18.8c-2.3,7.1-3.1,14.7-2.1,22c1.3,9.8,5.9,19.5,14.3,27.6L321.6,718c7.3,6.3,11.3,16.1,9.5,26.3l-45.4,258.1
	c-1.9,10.7-0.2,20.8,4.3,29.8c3.9,7.3,8.9,13.1,14.8,17.4c5.9,4.3,12.9,7.4,20.4,8.7c9.3,1.6,19.5,0.4,29.3-4.4l232.3-123.5
	c8-4.2,17.9-4.6,26.5,0l231.1,122.9c9.8,5.2,20.1,6.6,30.1,5c7.9-1.4,15-4.4,21-8.7c6-4.3,11-10,14.5-16.7
	c4.4-8.4,6.3-18.6,4.6-29.7L869,744.4c-1.5-8.9,1.3-18.4,8.3-25.1l187.4-181.1c8.7-8,13.5-18,14.9-28.1c1-7.2,0.3-14.7-1.8-21.6
	c-2.2-6.9-5.8-13.4-10.7-18.6c-6.9-7.4-16.5-12.8-28.4-14.5l-257.3-36.2C771.7,418.3,762.8,412.6,758.2,403.3L758.2,403.3z"/>
</svg>
